<svg xmlns="http://www.w3.org/2000/svg" xmlns:xlink="http://www.w3.org/1999/xlink" width="500" zoomAndPan="magnify" viewBox="0 0 375 374.999991" height="500" preserveAspectRatio="xMidYMid meet" version="1.0"><defs><g/><clipPath id="8f625cb0fd"><path d="M 199 171 L 222 171 L 222 255 L 199 255 Z M 199 171 " clip-rule="nonzero"/></clipPath><clipPath id="73684cad1a"><path d="M 202.898438 171.226562 L 221.34375 172.035156 L 217.710938 254.929688 L 199.269531 254.121094 Z M 202.898438 171.226562 " clip-rule="nonzero"/></clipPath><clipPath id="321b3049cb"><path d="M 239 113 L 288 113 L 288 161 L 239 161 Z M 239 113 " clip-rule="nonzero"/></clipPath><clipPath id="e43e134bc0"><path d="M 186.339844 128.671875 L 284.789062 112.613281 L 304.46875 233.265625 L 206.019531 249.328125 Z M 186.339844 128.671875 " clip-rule="nonzero"/></clipPath><clipPath id="1511e4fdea"><path d="M 186.339844 128.671875 L 287.75 112.128906 L 307.429688 232.785156 L 206.019531 249.328125 Z M 186.339844 128.671875 " clip-rule="nonzero"/></clipPath><clipPath id="254fc9557a"><path d="M 203 155 L 245 155 L 245 247 L 203 247 Z M 203 155 " clip-rule="nonzero"/></clipPath><clipPath id="1e0719e73b"><path d="M 186.339844 128.671875 L 284.789062 112.613281 L 304.46875 233.265625 L 206.019531 249.328125 Z M 186.339844 128.671875 " clip-rule="nonzero"/></clipPath><clipPath id="c37ef5fe88"><path d="M 186.339844 128.671875 L 287.75 112.128906 L 307.429688 232.785156 L 206.019531 249.328125 Z M 186.339844 128.671875 " clip-rule="nonzero"/></clipPath></defs><path stroke-linecap="butt" transform="matrix(0.75, 0, 0, 0.75, 109.619726, 132.216963)" fill="none" stroke-linejoin="miter" d="M 29.512242 40.23676 L 29.355992 40.002385 C 29.355992 39.36176 29.230992 38.67426 28.9862 37.929468 C 28.751825 37.17426 28.470575 36.42426 28.14245 35.684676 C 27.82995 34.929468 27.475784 34.195093 27.069534 33.476343 C 26.678909 32.762801 26.319534 32.085718 25.996617 31.445093 L 25.449742 31.111759 C 26.137242 32.768009 26.855992 34.262801 27.595575 35.606551 C 28.340367 36.934676 28.710159 38.346135 28.710159 39.846135 L 29.121617 40.314885 L 28.397659 40.002385 L 28.397659 39.512802 C 27.434117 37.648218 26.512242 35.61176 25.626825 33.398218 C 24.751825 31.184676 23.866408 29.148217 22.970575 27.283634 C 22.434117 30.851343 21.762242 34.429468 20.95495 38.007593 C 20.163283 41.575302 19.152866 45.038844 17.928908 48.398219 C 16.8612 51.278427 15.57995 54.038844 14.079949 56.679469 C 12.585158 59.325303 11.329949 62.111761 10.314324 65.038845 L 9.689324 64.549261 L 8.809116 64.726345 C 8.324741 64.611761 8.085157 64.288845 8.085157 63.768011 C 8.085157 63.340928 8.163282 62.820095 8.319532 62.205511 C 8.475782 61.596136 8.673699 60.971136 8.908074 60.330511 C 9.152866 59.679469 9.408074 59.049261 9.668491 58.439886 C 9.939324 57.825303 10.158074 57.330511 10.314324 56.955511 L 9.611199 56.721136 C 9.439324 57.044053 9.048699 57.768011 8.439324 58.887803 C 7.824741 60.007595 7.152866 61.153428 6.423699 62.325303 C 5.710157 63.497178 5.007032 64.564886 4.314324 65.528428 C 3.626824 66.476345 3.090365 66.955512 2.715365 66.955512 C 2.454949 66.799262 2.267449 66.549262 2.147657 66.21072 C 2.04349 65.861762 1.991407 65.549262 1.991407 65.27322 C 1.991407 63.736761 2.350782 61.747178 3.064324 59.299261 C 3.79349 56.835719 4.637241 54.283636 5.585157 51.643011 C 6.548699 48.997177 7.527866 46.42426 8.517449 43.92426 C 9.507032 41.413843 10.267449 39.304468 10.798699 37.596135 C 11.283074 36.101343 11.720574 34.48676 12.111199 32.752384 C 12.512241 31.023218 12.855991 29.262801 13.142449 27.481551 C 13.444533 25.695092 13.699741 23.924259 13.908074 22.16905 C 14.126824 20.398217 14.314324 18.715925 14.470574 17.127383 C 15.382033 16.424258 16.626825 15.840925 18.20495 15.372175 C 19.777866 14.8878 21.230992 14.382592 22.559117 13.846133 C 25.434117 16.189883 27.918492 18.8878 30.001826 21.934675 C 32.085159 24.965926 33.897659 28.403426 35.449743 32.247176 C 36.397659 30.799259 37.283076 29.200301 38.105993 27.439884 C 38.939326 25.684676 39.699743 23.861759 40.392451 21.971134 C 41.095576 20.070092 41.762243 18.189883 42.402868 16.330508 C 43.038285 14.455508 43.67891 12.715925 44.314326 11.111758 C 45.658077 10.695091 47.059118 10.382591 48.517452 10.174258 C 49.986202 9.955508 51.439327 9.705508 52.871619 9.434675 C 54.314327 12.429466 55.678911 15.288842 56.954952 18.007592 C 58.241411 20.73155 59.434119 23.465925 60.527869 26.210717 C 61.621619 28.945092 62.605994 31.757593 63.475786 34.648218 C 64.361203 37.528426 65.147661 40.616968 65.84037 43.92426 C 66.163286 45.632594 66.564328 47.351344 67.033078 49.08051 C 67.512245 50.814886 67.954953 52.559677 68.361203 54.314886 C 68.762245 56.075303 69.105995 57.840928 69.392453 59.611761 C 69.694536 61.36697 69.845578 63.127386 69.845578 64.882595 C 69.845578 65.038845 69.772661 65.252387 69.626828 65.528428 C 69.49662 65.788845 69.225786 65.945095 68.80912 65.997178 C 67.949745 60.981553 67.012245 56.023219 65.99662 51.111761 C 64.980994 46.320094 63.730994 41.54926 62.246619 36.79926 C 63.574744 41.54926 64.720578 46.26801 65.68412 50.955511 C 66.699745 55.814886 67.579953 60.747178 68.319536 65.762803 L 67.204953 66.408637 C 67.30912 67.044053 67.439328 67.71072 67.595578 68.39822 C 67.751828 69.090928 67.829953 69.752387 67.829953 70.393012 C 67.829953 70.559679 67.819536 70.89822 67.793495 71.408637 C 67.767453 71.913845 67.71537 72.434679 67.637245 72.971137 C 67.55912 73.502387 67.423703 73.965929 67.225786 74.356554 C 67.043495 74.757595 66.798703 74.96072 66.486203 74.96072 C 66.158078 74.96072 65.819536 74.757595 65.470578 74.356554 C 65.132036 73.965929 64.809119 73.481554 64.512244 72.908637 C 64.225786 72.351345 63.960161 71.814887 63.710161 71.309679 C 63.475786 70.814887 63.309119 70.42947 63.204953 70.158637 C 62.876828 66.643012 62.324744 62.71072 61.543494 58.361761 C 60.772661 54.012802 59.855994 49.611761 58.788286 45.158635 C 57.736202 40.70551 56.522661 36.387801 55.158077 32.205509 C 53.80391 28.012801 52.376827 24.314884 50.876827 21.111759 L 50.798702 21.523217 C 52.507035 25.143009 53.970577 28.861759 55.194535 32.674259 C 56.418494 36.491968 57.486202 40.356552 58.397661 44.278427 C 59.309119 48.195094 60.085161 52.143011 60.720578 56.111761 C 61.361203 60.08572 61.918494 64.02322 62.402869 67.92947 C 61.283078 65.471137 60.382036 62.976345 59.704952 60.450303 C 59.043494 57.908636 58.454952 55.377386 57.949744 52.851344 C 57.454952 50.314886 56.954952 47.76801 56.444536 45.215927 C 55.939327 42.648218 55.30391 40.059677 54.548702 37.439885 L 55.11641 35.840926 C 54.376827 33.653426 53.611202 31.491968 52.829952 29.356551 C 52.064327 27.221134 51.173702 25.143009 50.158077 23.127384 L 49.845577 23.924259 C 49.257035 25.528426 48.507035 27.398217 47.595577 29.533634 C 46.684118 31.653426 45.61641 33.731551 44.392451 35.762801 C 43.168493 37.794051 41.798701 39.61176 40.27266 41.210718 C 38.762243 42.79926 37.095576 43.86176 35.272659 44.39301 C 34.152867 43.70551 33.022659 43.054468 31.876826 42.439885 C 30.730992 41.83051 29.569534 41.20551 28.397659 40.564885 L 28.397659 40.08051 L 31.600784 41.835718 C 32.668492 42.42426 33.736201 43.033635 34.803909 43.67426 L 35.449743 43.51801 C 37.741409 42.189885 39.590368 40.86176 40.996618 39.533635 C 42.413285 38.189885 43.626826 36.721135 44.626826 35.116968 C 45.642452 33.518009 46.538285 31.721134 47.30391 29.726343 C 48.08516 27.721134 48.986202 25.434676 50.001827 22.872175 L 49.689327 22.16905 L 49.355993 22.872175 L 48.007035 25.997176 C 47.475785 27.283634 46.814327 28.663842 46.033077 30.137801 C 45.267452 31.596134 44.413285 33.085718 43.475785 34.61176 C 42.538285 36.122176 41.590368 37.507593 40.626826 38.76801 C 39.673701 40.01801 38.689326 41.033635 37.673701 41.814885 C 36.658076 42.585718 35.704951 42.971135 34.803909 42.971135 Z M 57.033077 20.877384 C 56.928911 20.554467 56.736202 20.111759 56.465369 19.549259 C 56.204952 18.991967 55.923702 18.41905 55.626827 17.830508 C 55.340369 17.247175 55.059119 16.674258 54.783077 16.111758 C 54.52266 15.554467 54.314327 15.143008 54.158077 14.882592 L 55.038285 17.361758 L 56.798702 21.033634 Z M 48.632035 21.189884 L 45.918493 28.398217 C 46.449743 27.278426 46.944535 26.158634 47.402868 25.038842 C 47.855993 23.91905 48.293493 22.799259 48.71016 21.679467 Z M 46.564327 13.846133 L 47.595577 16.486758 L 48.007035 16.408633 L 47.033077 13.846133 Z M 15.272658 18.163842 L 15.116408 20.564884 C 15.116408 21.101342 15.064325 21.814884 14.960158 22.715925 L 15.840366 18.007592 Z M 42.637243 19.846134 L 44.725785 14.882592 L 44.392451 14.882592 Z M 53.923702 14.393008 L 52.069535 11.366966 L 52.246619 12.247175 Z M 50.486202 20.236759 L 50.314327 20.564884 L 50.642452 21.189884 L 50.720577 20.799259 Z M 50.486202 20.236759 " stroke="#e6e6dd" stroke-width="6" stroke-opacity="1" stroke-miterlimit="4"/><g fill="#000000" fill-opacity="1"><g transform="translate(109.619726, 184.71696)"><g><path d="M 22.140625 -22.3125 L 22.015625 -22.5 C 22.015625 -22.976562 21.925781 -23.5 21.75 -24.0625 C 21.570312 -24.625 21.363281 -25.179688 21.125 -25.734375 C 20.882812 -26.296875 20.613281 -26.847656 20.3125 -27.390625 C 20.007812 -27.929688 19.738281 -28.441406 19.5 -28.921875 L 19.078125 -29.15625 C 19.597656 -27.914062 20.140625 -26.796875 20.703125 -25.796875 C 21.265625 -24.796875 21.546875 -23.738281 21.546875 -22.625 L 21.84375 -22.265625 L 21.296875 -22.5 L 21.296875 -22.859375 C 20.578125 -24.253906 19.882812 -25.78125 19.21875 -27.4375 C 18.5625 -29.101562 17.894531 -30.640625 17.21875 -32.046875 C 16.820312 -29.359375 16.320312 -26.675781 15.71875 -24 C 15.113281 -21.320312 14.351562 -18.722656 13.4375 -16.203125 C 12.632812 -14.035156 11.671875 -11.960938 10.546875 -9.984375 C 9.429688 -8.003906 8.492188 -5.914062 7.734375 -3.71875 L 7.265625 -4.078125 L 6.59375 -3.953125 C 6.238281 -4.035156 6.0625 -4.28125 6.0625 -4.6875 C 6.0625 -5 6.117188 -5.382812 6.234375 -5.84375 C 6.359375 -6.3125 6.507812 -6.785156 6.6875 -7.265625 C 6.863281 -7.742188 7.050781 -8.210938 7.25 -8.671875 C 7.457031 -9.128906 7.617188 -9.5 7.734375 -9.78125 L 7.203125 -9.953125 C 7.078125 -9.710938 6.785156 -9.171875 6.328125 -8.328125 C 5.867188 -7.492188 5.367188 -6.632812 4.828125 -5.75 C 4.285156 -4.875 3.753906 -4.078125 3.234375 -3.359375 C 2.710938 -2.640625 2.316406 -2.28125 2.046875 -2.28125 C 1.835938 -2.394531 1.691406 -2.582031 1.609375 -2.84375 C 1.535156 -3.101562 1.5 -3.335938 1.5 -3.546875 C 1.5 -4.703125 1.769531 -6.195312 2.3125 -8.03125 C 2.851562 -9.875 3.484375 -11.785156 4.203125 -13.765625 C 4.921875 -15.742188 5.648438 -17.671875 6.390625 -19.546875 C 7.128906 -21.429688 7.695312 -23.015625 8.09375 -24.296875 C 8.457031 -25.421875 8.789062 -26.628906 9.09375 -27.921875 C 9.394531 -29.222656 9.65625 -30.546875 9.875 -31.890625 C 10.09375 -33.234375 10.28125 -34.5625 10.4375 -35.875 C 10.601562 -37.195312 10.742188 -38.457031 10.859375 -39.65625 C 11.535156 -40.175781 12.460938 -40.613281 13.640625 -40.96875 C 14.828125 -41.332031 15.921875 -41.71875 16.921875 -42.125 C 19.078125 -40.363281 20.9375 -38.34375 22.5 -36.0625 C 24.0625 -33.78125 25.421875 -31.195312 26.578125 -28.3125 C 27.296875 -29.394531 27.960938 -30.597656 28.578125 -31.921875 C 29.203125 -33.242188 29.773438 -34.613281 30.296875 -36.03125 C 30.816406 -37.445312 31.316406 -38.851562 31.796875 -40.25 C 32.273438 -41.65625 32.753906 -42.957031 33.234375 -44.15625 C 34.234375 -44.476562 35.285156 -44.71875 36.390625 -44.875 C 37.492188 -45.039062 38.582031 -45.222656 39.65625 -45.421875 C 40.738281 -43.179688 41.757812 -41.039062 42.71875 -39 C 43.675781 -36.957031 44.566406 -34.90625 45.390625 -32.84375 C 46.210938 -30.789062 46.953125 -28.679688 47.609375 -26.515625 C 48.265625 -24.359375 48.851562 -22.039062 49.375 -19.5625 C 49.613281 -18.28125 49.910156 -16.988281 50.265625 -15.6875 C 50.628906 -14.382812 50.960938 -13.070312 51.265625 -11.75 C 51.566406 -10.4375 51.828125 -9.117188 52.046875 -7.796875 C 52.265625 -6.472656 52.375 -5.15625 52.375 -3.84375 C 52.375 -3.71875 52.320312 -3.554688 52.21875 -3.359375 C 52.125 -3.160156 51.914062 -3.039062 51.59375 -3 C 50.957031 -6.757812 50.257812 -10.476562 49.5 -14.15625 C 48.738281 -17.757812 47.800781 -21.34375 46.6875 -24.90625 C 47.6875 -21.34375 48.546875 -17.800781 49.265625 -14.28125 C 50.023438 -10.632812 50.679688 -6.9375 51.234375 -3.1875 L 50.40625 -2.703125 C 50.476562 -2.222656 50.570312 -1.722656 50.6875 -1.203125 C 50.8125 -0.679688 50.875 -0.179688 50.875 0.296875 C 50.875 0.421875 50.863281 0.671875 50.84375 1.046875 C 50.820312 1.429688 50.78125 1.820312 50.71875 2.21875 C 50.664062 2.613281 50.566406 2.960938 50.421875 3.265625 C 50.285156 3.566406 50.097656 3.71875 49.859375 3.71875 C 49.617188 3.71875 49.367188 3.566406 49.109375 3.265625 C 48.847656 2.960938 48.609375 2.601562 48.390625 2.1875 C 48.171875 1.769531 47.96875 1.367188 47.78125 0.984375 C 47.601562 0.609375 47.476562 0.320312 47.40625 0.125 C 47.164062 -2.519531 46.753906 -5.472656 46.171875 -8.734375 C 45.585938 -11.992188 44.894531 -15.289062 44.09375 -18.625 C 43.300781 -21.96875 42.394531 -25.207031 41.375 -28.34375 C 40.351562 -31.488281 39.28125 -34.257812 38.15625 -36.65625 L 38.09375 -36.359375 C 39.375 -33.640625 40.472656 -30.847656 41.390625 -27.984375 C 42.316406 -25.128906 43.117188 -22.226562 43.796875 -19.28125 C 44.472656 -16.34375 45.050781 -13.382812 45.53125 -10.40625 C 46.019531 -7.425781 46.441406 -4.476562 46.796875 -1.5625 C 45.960938 -3.394531 45.296875 -5.257812 44.796875 -7.15625 C 44.296875 -9.0625 43.851562 -10.960938 43.46875 -12.859375 C 43.09375 -14.765625 42.710938 -16.675781 42.328125 -18.59375 C 41.953125 -20.519531 41.484375 -22.460938 40.921875 -24.421875 L 41.34375 -25.625 C 40.78125 -27.257812 40.207031 -28.875 39.625 -30.46875 C 39.050781 -32.070312 38.382812 -33.632812 37.625 -35.15625 L 37.375 -34.5625 C 36.9375 -33.363281 36.378906 -31.960938 35.703125 -30.359375 C 35.023438 -28.753906 34.222656 -27.191406 33.296875 -25.671875 C 32.378906 -24.160156 31.347656 -22.800781 30.203125 -21.59375 C 29.066406 -20.394531 27.816406 -19.597656 26.453125 -19.203125 C 25.617188 -19.722656 24.769531 -20.210938 23.90625 -20.671875 C 23.050781 -21.128906 22.179688 -21.597656 21.296875 -22.078125 L 21.296875 -22.4375 L 23.703125 -21.125 C 24.503906 -20.675781 25.300781 -20.210938 26.09375 -19.734375 L 26.578125 -19.859375 C 28.296875 -20.859375 29.6875 -21.859375 30.75 -22.859375 C 31.8125 -23.859375 32.722656 -24.957031 33.484375 -26.15625 C 34.242188 -27.351562 34.910156 -28.703125 35.484375 -30.203125 C 36.066406 -31.703125 36.738281 -33.414062 37.5 -35.34375 L 37.265625 -35.875 L 37.015625 -35.34375 L 36 -33 C 35.601562 -32.039062 35.113281 -31.007812 34.53125 -29.90625 C 33.945312 -28.8125 33.304688 -27.691406 32.609375 -26.546875 C 31.910156 -25.410156 31.203125 -24.367188 30.484375 -23.421875 C 29.765625 -22.484375 29.023438 -21.722656 28.265625 -21.140625 C 27.503906 -20.566406 26.78125 -20.28125 26.09375 -20.28125 Z M 42.78125 -36.84375 C 42.695312 -37.082031 42.554688 -37.410156 42.359375 -37.828125 C 42.160156 -38.242188 41.953125 -38.671875 41.734375 -39.109375 C 41.515625 -39.554688 41.300781 -39.988281 41.09375 -40.40625 C 40.894531 -40.832031 40.738281 -41.144531 40.625 -41.34375 L 41.28125 -39.484375 L 42.59375 -36.71875 Z M 36.484375 -36.59375 L 34.4375 -31.203125 C 34.84375 -32.035156 35.210938 -32.875 35.546875 -33.71875 C 35.890625 -34.5625 36.222656 -35.398438 36.546875 -36.234375 Z M 34.921875 -42.125 L 35.703125 -40.140625 L 36 -40.203125 L 35.28125 -42.125 Z M 11.453125 -38.875 L 11.34375 -37.078125 C 11.34375 -36.679688 11.300781 -36.140625 11.21875 -35.453125 L 11.875 -39 Z M 31.984375 -37.625 L 33.546875 -41.34375 L 33.296875 -41.34375 Z M 40.4375 -41.703125 L 39.0625 -43.984375 L 39.1875 -43.3125 Z M 37.859375 -37.3125 L 37.734375 -37.078125 L 37.984375 -36.59375 L 38.046875 -36.90625 Z M 37.859375 -37.3125 "/></g></g></g><path stroke-linecap="butt" transform="matrix(0.866085, 0, 0, 0.866085, 77.507987, 155.483368)" fill="none" stroke-linejoin="miter" d="M 12.935168 103.998288 L 12.935168 38.01798 L 3.233641 38.01798 L 3.233641 22.353915 L 38.972786 22.353915 L 38.972786 38.01798 L 29.271259 38.01798 L 29.271259 103.998288 Z M 38.787867 22.353915 L 63.873824 22.353915 C 67.865387 22.353915 70.954902 23.260473 73.133348 25.069079 C 75.329835 26.864155 76.809194 29.3944 77.566915 32.659814 C 78.324635 35.925228 78.703495 40.09269 78.703495 45.166711 C 78.703495 49.794218 78.099123 53.406921 76.894889 56.004819 C 75.686144 58.589187 73.597903 60.393283 70.630165 61.412597 C 73.101776 61.922255 74.892342 63.162571 75.98833 65.124525 C 77.10236 67.09099 77.66163 69.752032 77.66163 73.112161 L 77.47671 103.998288 L 61.505948 103.998288 L 61.505948 72.065786 C 61.505948 69.774583 61.059434 68.313265 60.161896 67.677322 C 59.277889 67.045888 57.663223 66.730171 55.308878 66.730171 L 55.308878 103.998288 L 38.787867 103.998288 Z M 59.304951 52.572526 C 61.591643 52.572526 62.737244 50.105424 62.737244 45.166711 C 62.737244 43.001796 62.638018 41.382619 62.435058 40.318203 C 62.250138 39.235745 61.902849 38.491555 61.393192 38.090144 C 60.897066 37.670691 60.170917 37.46322 59.210236 37.46322 L 55.403593 37.46322 L 55.403593 52.572526 Z M 77.165503 103.998288 L 85.058424 22.353915 L 112.719729 22.353915 L 120.517935 103.998288 L 105.03879 103.998288 L 103.879658 90.796814 L 93.993211 90.796814 L 93.04155 103.998288 Z M 95.247057 77.77575 L 102.648362 77.77575 L 99.04919 36.231925 L 98.28696 36.231925 Z M 95.247057 77.77575 " stroke="#000000" stroke-width="3.683835" stroke-opacity="1" stroke-miterlimit="4"/><g fill="#e6e6dd" fill-opacity="1"><g transform="translate(79.483743, 245.55617)"><g><path d="M 9.21875 0 L 9.21875 -57.140625 L 0.828125 -57.140625 L 0.828125 -70.71875 L 31.78125 -70.71875 L 31.78125 -57.140625 L 23.375 -57.140625 L 23.375 0 Z M 9.21875 0 "/></g></g></g><g fill="#e6e6dd" fill-opacity="1"><g transform="translate(107.965096, 245.55617)"><g><path d="M 3.125 -70.71875 L 24.859375 -70.71875 C 28.316406 -70.71875 30.992188 -69.9375 32.890625 -68.375 C 34.785156 -66.8125 36.0625 -64.613281 36.71875 -61.78125 C 37.375 -58.957031 37.703125 -55.351562 37.703125 -50.96875 C 37.703125 -46.957031 37.179688 -43.828125 36.140625 -41.578125 C 35.097656 -39.328125 33.285156 -37.765625 30.703125 -36.890625 C 32.847656 -36.441406 34.398438 -35.367188 35.359375 -33.671875 C 36.316406 -31.972656 36.796875 -29.664062 36.796875 -26.75 L 36.640625 0 L 22.8125 0 L 22.8125 -27.65625 C 22.8125 -29.632812 22.425781 -30.894531 21.65625 -31.4375 C 20.882812 -31.988281 19.484375 -32.265625 17.453125 -32.265625 L 17.453125 0 L 3.125 0 Z M 20.90625 -44.546875 C 22.882812 -44.546875 23.875 -46.6875 23.875 -50.96875 C 23.875 -52.832031 23.789062 -54.226562 23.625 -55.15625 C 23.457031 -56.09375 23.15625 -56.738281 22.71875 -57.09375 C 22.28125 -57.445312 21.648438 -57.625 20.828125 -57.625 L 17.53125 -57.625 L 17.53125 -44.546875 Z M 20.90625 -44.546875 "/></g></g></g><g fill="#e6e6dd" fill-opacity="1"><g transform="translate(143.114255, 245.55617)"><g><path d="M 1.234375 0 L 8.0625 -70.71875 L 32.03125 -70.71875 L 38.78125 0 L 25.359375 0 L 24.375 -11.4375 L 15.8125 -11.4375 L 14.984375 0 Z M 16.875 -22.71875 L 23.296875 -22.71875 L 20.171875 -58.703125 L 19.515625 -58.703125 Z M 16.875 -22.71875 "/></g></g></g><path stroke-linecap="butt" transform="matrix(0.75, 0, 0, 0.75, 232.64457, 155.483368)" fill="none" stroke-linejoin="miter" d="M 4.18224 120.00135 L 4.18224 25.709677 L 41.942659 25.709677 L 41.942659 43.907595 L 23.369742 43.907595 L 23.369742 62.266972 L 41.166618 62.266972 L 41.166618 80.037806 L 23.369742 80.037806 L 23.369742 101.668016 L 43.150993 101.668016 L 43.150993 120.00135 Z M 43.916618 120.00135 L 43.916618 25.709677 L 62.786411 25.709677 L 62.786411 103.970099 L 82.213495 103.970099 L 82.213495 120.00135 Z M 43.916618 120.00135 " stroke="#000000" stroke-width="3.567883" stroke-opacity="1" stroke-miterlimit="4"/><g fill="#e6e6dd" fill-opacity="1"><g transform="translate(232.64457, 245.483362)"><g><path d="M 3.125 0 L 3.125 -70.71875 L 31.453125 -70.71875 L 31.453125 -57.046875 L 17.53125 -57.046875 L 17.53125 -43.296875 L 30.875 -43.296875 L 30.875 -29.96875 L 17.53125 -29.96875 L 17.53125 -13.75 L 32.359375 -13.75 L 32.359375 0 Z M 3.125 0 "/></g></g></g><g fill="#e6e6dd" fill-opacity="1"><g transform="translate(262.445332, 245.483362)"><g><path d="M 3.125 0 L 3.125 -70.71875 L 17.28125 -70.71875 L 17.28125 -12.015625 L 31.859375 -12.015625 L 31.859375 0 Z M 3.125 0 "/></g></g></g><path stroke-linecap="butt" transform="matrix(0.75, 0, 0, 0.75, 164.300487, 155.483368)" fill="none" stroke-linejoin="miter" d="M 35.760811 120.00135 L 24.125394 25.579469 L 42.14102 25.579469 L 49.052478 89.819057 L 55.193104 25.579469 L 73.203522 25.579469 L 61.568104 120.00135 Z M 35.760811 120.00135 " stroke="#000000" stroke-width="4.665692" stroke-opacity="1" stroke-miterlimit="4"/><g fill="#e6e6dd" fill-opacity="1"><g transform="translate(181.491892, 245.483362)"><g><path d="M 9.625 0 L 0.90625 -70.796875 L 14.40625 -70.796875 L 19.59375 -22.640625 L 24.203125 -70.796875 L 37.703125 -70.796875 L 28.984375 0 Z M 9.625 0 "/></g></g></g><g clip-path="url(#8f625cb0fd)"><g clip-path="url(#73684cad1a)"><path fill="#ffffff" d="M 202.898438 171.226562 L 221.34375 172.035156 L 217.710938 254.957031 L 199.265625 254.152344 Z M 202.898438 171.226562 " fill-opacity="1" fill-rule="nonzero"/></g></g><path stroke-linecap="butt" transform="matrix(0.75, 0, 0, 0.75, 158.517402, 133.267726)" fill="none" stroke-linejoin="miter" d="M 51.841384 61.523244 C 51.726801 62.851369 51.200759 64.012827 50.263259 65.002411 C 49.336175 65.991994 48.190342 66.814911 46.825759 67.481577 C 45.471592 68.143036 44.028883 68.637828 42.50805 68.965953 C 40.997633 69.278453 39.622633 69.434703 38.388258 69.434703 C 34.768466 69.434703 31.518466 68.570119 28.638257 66.835744 C 25.763257 65.106577 23.310132 62.866994 21.278882 60.116994 C 19.247632 57.372202 17.643465 54.31491 16.47159 50.955535 C 15.351798 47.700326 14.716382 44.507618 14.560132 41.366992 C 14.664298 44.611784 15.273673 47.882618 16.393465 51.18991 C 17.56534 54.616993 19.15909 57.715952 21.179924 60.486785 C 23.211174 63.262827 25.690341 65.512827 28.622632 67.247202 C 31.565341 68.976369 34.877841 69.846161 38.560133 69.846161 C 40.580967 69.846161 42.544508 69.523244 44.461175 68.887828 C 46.388259 68.247203 48.179925 67.361786 49.830967 66.231577 C 48.607009 68.106578 46.982009 69.439911 44.950758 70.236786 C 42.929925 71.044078 40.8518 71.445119 38.716383 71.445119 C 36.310133 71.445119 34.091383 71.106578 32.060133 70.429494 C 30.039299 69.768036 28.075757 68.715953 26.159091 67.283661 L 25.825757 65.997202 C 23.638257 64.669077 21.758049 63.023244 20.185132 61.054494 C 18.622632 59.075327 17.34659 56.93991 16.357007 54.648243 C 15.367423 52.34616 14.643465 49.93991 14.185131 47.43991 C 13.742423 44.929493 13.523673 42.424284 13.523673 39.924284 C 13.523673 37.252409 13.768465 34.601367 14.263256 31.971159 C 14.773673 29.330533 15.482007 26.726366 16.393465 24.158658 C 16.185132 24.158658 16.080965 24.080533 16.080965 23.924283 C 14.961173 26.3722 14.133048 28.908658 13.601798 31.523242 C 13.06534 34.143034 12.799715 36.804492 12.799715 39.512826 C 12.799715 44.695118 13.810131 49.674285 15.825757 54.455535 C 17.857007 59.22116 20.872632 63.257619 24.872632 66.564911 C 22.789299 64.960744 20.955965 63.127411 19.383048 61.054494 C 17.820548 58.97116 16.528882 56.747202 15.513257 54.37741 C 14.497631 51.991993 13.737215 49.523243 13.232006 46.971159 C 12.72159 44.408659 12.466381 41.814909 12.466381 39.200326 C 12.466381 35.6847 12.961173 32.101367 13.950756 28.455533 C 14.94034 24.799283 16.435132 21.476366 18.424715 18.497199 C 20.429924 15.502407 22.924715 13.059699 25.903882 11.174282 C 28.898674 9.27324 32.398674 8.320115 36.393466 8.320115 C 38.205966 8.320115 39.924717 8.611782 41.549717 9.200324 C 43.179925 9.783657 44.705967 10.559699 46.138259 11.52324 C 47.586175 12.486782 48.935134 13.580532 50.185134 14.804491 C 51.445551 16.028449 52.638259 17.278449 53.758051 18.554491 L 52.075759 20.002408 C 51.320551 19.741991 50.612217 19.330533 49.950759 18.768033 C 49.284092 18.210741 48.685134 17.632616 48.153884 17.033658 L 47.685134 17.596158 C 48.372634 18.403449 49.013259 19.330533 49.596592 20.372199 C 50.185134 21.398241 50.476801 22.476366 50.476801 23.596158 L 49.596592 25.038866 C 48.909092 24.986783 48.0393 24.575325 46.997634 23.8097 C 45.955967 23.02845 44.804925 22.200325 43.544508 21.330533 C 42.294508 20.445116 41.018467 19.627408 39.716383 18.887824 C 38.4143 18.132616 37.143466 17.752408 35.903883 17.752408 C 34.315341 17.752408 32.893466 18.158658 31.627841 18.965949 C 30.377841 19.757616 29.247632 20.799283 28.232007 22.09095 C 27.216382 23.366991 26.346591 24.830533 25.633049 26.486783 C 24.914299 28.137825 24.330965 29.820117 23.872632 31.523242 C 23.419507 33.231575 23.06534 34.898242 22.820549 36.523242 C 22.586174 38.153451 22.466382 39.575326 22.466382 40.799284 C 22.466382 42.882618 22.799715 45.184701 23.466382 47.695118 C 24.143465 50.195118 25.133049 52.528452 26.435132 54.68991 C 27.737216 56.851368 29.341382 58.653452 31.258049 60.09616 C 33.185133 61.528452 35.377841 62.247202 37.841383 62.247202 C 38.961175 62.247202 40.117425 62.12741 41.315342 61.893035 C 42.513258 61.648244 43.596592 61.231577 44.560133 60.643035 L 45.200759 61.366994 C 43.169508 62.903452 40.846592 63.674286 38.232008 63.674286 C 35.679925 63.674286 33.336174 63.059702 31.200758 61.835744 C 32.216383 62.528452 33.336174 63.033661 34.560133 63.361786 C 35.888258 63.736786 37.221591 63.924286 38.560133 63.924286 C 41.00805 63.924286 43.299717 63.231577 45.435134 61.835744 L 46.159092 62.872202 C 46.69555 62.28366 47.357009 61.710744 48.153884 61.153452 C 48.961175 60.590952 49.784092 60.262827 50.633051 60.15866 Z M 21.278882 45.450326 C 21.539299 48.53366 22.44034 51.491993 23.992424 54.31491 C 25.539299 57.090952 27.565341 59.330535 30.065341 61.03366 C 27.565341 59.278452 25.591382 57.012827 24.148674 54.236785 C 22.664299 51.413868 21.705965 48.481576 21.278882 45.450326 Z M 21.278882 45.450326 " stroke="#e6e6dd" stroke-width="6" stroke-opacity="1" stroke-miterlimit="4"/><g fill="#000000" fill-opacity="1"><g transform="translate(165.173652, 185.767723)"><g><path d="M 32.21875 -6.359375 C 32.132812 -5.359375 31.742188 -4.488281 31.046875 -3.75 C 30.347656 -3.007812 29.488281 -2.390625 28.46875 -1.890625 C 27.445312 -1.390625 26.363281 -1.019531 25.21875 -0.78125 C 24.082031 -0.539062 23.054688 -0.421875 22.140625 -0.421875 C 19.421875 -0.421875 16.976562 -1.066406 14.8125 -2.359375 C 12.65625 -3.660156 10.816406 -5.34375 9.296875 -7.40625 C 7.773438 -9.46875 6.578125 -11.757812 5.703125 -14.28125 C 4.859375 -16.71875 4.378906 -19.117188 4.265625 -21.484375 C 4.335938 -19.035156 4.796875 -16.570312 5.640625 -14.09375 C 6.515625 -11.539062 7.710938 -9.222656 9.234375 -7.140625 C 10.753906 -5.054688 12.613281 -3.363281 14.8125 -2.0625 C 17.019531 -0.769531 19.503906 -0.125 22.265625 -0.125 C 23.785156 -0.125 25.265625 -0.363281 26.703125 -0.84375 C 28.140625 -1.320312 29.476562 -1.976562 30.71875 -2.8125 C 29.800781 -1.414062 28.582031 -0.421875 27.0625 0.171875 C 25.539062 0.773438 23.976562 1.078125 22.375 1.078125 C 20.582031 1.078125 18.925781 0.828125 17.40625 0.328125 C 15.882812 -0.171875 14.398438 -0.960938 12.953125 -2.046875 L 12.71875 -3 C 11.082031 -4 9.671875 -5.238281 8.484375 -6.71875 C 7.304688 -8.195312 6.347656 -9.796875 5.609375 -11.515625 C 4.867188 -13.234375 4.328125 -15.03125 3.984375 -16.90625 C 3.648438 -18.789062 3.484375 -20.675781 3.484375 -22.5625 C 3.484375 -24.5625 3.671875 -26.550781 4.046875 -28.53125 C 4.429688 -30.507812 4.960938 -32.457031 5.640625 -34.375 C 5.484375 -34.375 5.40625 -34.4375 5.40625 -34.5625 C 4.5625 -32.71875 3.9375 -30.816406 3.53125 -28.859375 C 3.132812 -26.898438 2.9375 -24.898438 2.9375 -22.859375 C 2.9375 -18.984375 3.695312 -15.253906 5.21875 -11.671875 C 6.738281 -8.085938 9 -5.054688 12 -2.578125 C 10.4375 -3.773438 9.066406 -5.15625 7.890625 -6.71875 C 6.710938 -8.28125 5.742188 -9.953125 4.984375 -11.734375 C 4.222656 -13.515625 3.648438 -15.363281 3.265625 -17.28125 C 2.890625 -19.195312 2.703125 -21.132812 2.703125 -23.09375 C 2.703125 -25.738281 3.070312 -28.429688 3.8125 -31.171875 C 4.550781 -33.910156 5.671875 -36.398438 7.171875 -38.640625 C 8.671875 -40.878906 10.539062 -42.707031 12.78125 -44.125 C 15.019531 -45.550781 17.640625 -46.265625 20.640625 -46.265625 C 22.003906 -46.265625 23.296875 -46.039062 24.515625 -45.59375 C 25.734375 -45.15625 26.878906 -44.578125 27.953125 -43.859375 C 29.035156 -43.140625 30.046875 -42.316406 30.984375 -41.390625 C 31.929688 -40.472656 32.820312 -39.535156 33.65625 -38.578125 L 32.40625 -37.5 C 31.84375 -37.695312 31.3125 -38.003906 30.8125 -38.421875 C 30.3125 -38.847656 29.859375 -39.28125 29.453125 -39.71875 L 29.09375 -39.296875 C 29.613281 -38.703125 30.09375 -38.015625 30.53125 -37.234375 C 30.976562 -36.453125 31.203125 -35.640625 31.203125 -34.796875 L 30.546875 -33.71875 C 30.023438 -33.757812 29.375 -34.066406 28.59375 -34.640625 C 27.8125 -35.222656 26.945312 -35.84375 26 -36.5 C 25.0625 -37.164062 24.101562 -37.78125 23.125 -38.34375 C 22.144531 -38.90625 21.195312 -39.1875 20.28125 -39.1875 C 19.082031 -39.1875 18.007812 -38.882812 17.0625 -38.28125 C 16.125 -37.675781 15.273438 -36.894531 14.515625 -35.9375 C 13.753906 -34.976562 13.101562 -33.878906 12.5625 -32.640625 C 12.03125 -31.398438 11.59375 -30.140625 11.25 -28.859375 C 10.90625 -27.578125 10.644531 -26.328125 10.46875 -25.109375 C 10.289062 -23.890625 10.203125 -22.820312 10.203125 -21.90625 C 10.203125 -20.34375 10.453125 -18.617188 10.953125 -16.734375 C 11.453125 -14.859375 12.191406 -13.109375 13.171875 -11.484375 C 14.148438 -9.867188 15.359375 -8.519531 16.796875 -7.4375 C 18.234375 -6.351562 19.875 -5.8125 21.71875 -5.8125 C 22.5625 -5.8125 23.429688 -5.898438 24.328125 -6.078125 C 25.234375 -6.265625 26.046875 -6.578125 26.765625 -7.015625 L 27.234375 -6.484375 C 25.710938 -5.316406 23.972656 -4.734375 22.015625 -4.734375 C 20.097656 -4.734375 18.335938 -5.195312 16.734375 -6.125 C 17.492188 -5.601562 18.335938 -5.222656 19.265625 -4.984375 C 20.265625 -4.703125 21.265625 -4.5625 22.265625 -4.5625 C 24.097656 -4.5625 25.816406 -5.082031 27.421875 -6.125 L 27.953125 -5.34375 C 28.359375 -5.78125 28.859375 -6.207031 29.453125 -6.625 C 30.054688 -7.050781 30.675781 -7.300781 31.3125 -7.375 Z M 9.296875 -18.421875 C 9.492188 -16.097656 10.175781 -13.878906 11.34375 -11.765625 C 12.5 -9.679688 14.019531 -8 15.90625 -6.71875 C 14.019531 -8.039062 12.535156 -9.738281 11.453125 -11.8125 C 10.335938 -13.9375 9.617188 -16.140625 9.296875 -18.421875 Z M 9.296875 -18.421875 "/></g></g></g><g clip-path="url(#321b3049cb)"><g clip-path="url(#e43e134bc0)"><g clip-path="url(#1511e4fdea)"><path fill="#000000" d="M 287 113.578125 C 285.890625 112.445312 279.617188 116.988281 278.863281 117.535156 C 274.984375 120.34375 272.222656 123.308594 270.390625 125.570312 C 268.246094 124.878906 266.105469 124.191406 263.960938 123.5 C 264.347656 123.085938 264.734375 122.671875 265.125 122.257812 C 264.820312 121.972656 264.339844 121.585938 263.667969 121.285156 C 262.871094 120.921875 262.152344 120.835938 261.703125 120.816406 C 261.359375 121.238281 261.015625 121.660156 260.671875 122.082031 C 256.925781 120.976562 253.175781 119.875 249.425781 118.773438 C 249.40625 118.777344 249.390625 118.777344 249.371094 118.78125 C 247.453125 119.800781 245.746094 121.167969 243.964844 122.410156 C 248.75 124.320312 253.539062 126.230469 258.324219 128.140625 L 257.679688 128.988281 C 257.929688 129.09375 258.175781 129.203125 258.421875 129.3125 C 258.765625 129.070312 259.109375 128.832031 259.453125 128.589844 C 261.167969 129.273438 262.878906 129.957031 264.59375 130.640625 L 250.03125 147.738281 C 248.011719 147.175781 245.996094 146.613281 243.976562 146.046875 C 242.59375 146.835938 241.210938 147.621094 239.828125 148.40625 L 247.636719 151.664062 C 247.257812 152.257812 246.878906 152.855469 246.5 153.453125 C 246.628906 153.582031 246.761719 153.714844 246.894531 153.84375 C 247.480469 153.519531 248.070312 153.195312 248.65625 152.871094 C 249.402344 155.402344 250.148438 157.9375 250.894531 160.46875 C 251.820312 159.207031 252.746094 157.945312 253.671875 156.6875 C 253.28125 154.53125 252.886719 152.375 252.496094 150.222656 L 269.660156 135.835938 L 271.34375 140.5 L 270.714844 141.34375 L 270.914062 141.804688 C 271.121094 141.789062 271.324219 141.777344 271.527344 141.765625 C 273.230469 147.183594 274.9375 152.601562 276.640625 158.019531 C 277.15625 157.394531 277.558594 156.871094 277.820312 156.503906 C 278.679688 155.304688 279.484375 154.0625 280.40625 152.910156 C 280.535156 152.75 280.667969 152.589844 280.800781 152.429688 C 279.898438 148.242188 278.996094 144.054688 278.09375 139.867188 C 278.519531 139.523438 278.941406 139.179688 279.367188 138.835938 C 279.378906 138.394531 279.34375 137.691406 279.050781 136.898438 C 278.816406 136.257812 278.5 135.78125 278.25 135.464844 C 277.761719 135.734375 277.273438 136.003906 276.785156 136.269531 C 276.210938 134.195312 275.636719 132.117188 275.0625 130.042969 C 277.535156 127.960938 280.746094 124.859375 283.742188 120.511719 C 285 118.691406 287.898438 114.492188 287 113.578125 Z M 287 113.578125 " fill-opacity="1" fill-rule="nonzero"/></g></g></g><g clip-path="url(#254fc9557a)"><g clip-path="url(#1e0719e73b)"><g clip-path="url(#c37ef5fe88)"><path fill="#000000" d="M 205.832031 211.292969 C 203.867188 219.234375 202.734375 229.191406 205.863281 236.941406 C 207.199219 240.457031 209.546875 243.890625 213.078125 245.480469 C 216.492188 247.070312 220.492188 246.761719 223.90625 245.394531 C 219.320312 246.449219 214.335938 245.863281 211.113281 242.15625 C 209.601562 240.453125 208.652344 238.339844 207.972656 236.183594 C 205.289062 227.933594 207.488281 216.871094 210.027344 208.734375 C 212.679688 200.285156 216.503906 192.21875 221.070312 184.628906 C 225.214844 177.75 229.992188 171.289062 235.300781 165.25 C 238.257812 161.871094 241.402344 158.640625 244.628906 155.519531 C 226.222656 168.617188 211.433594 189.335938 205.832031 211.292969 Z M 205.832031 211.292969 " fill-opacity="1" fill-rule="nonzero"/></g></g></g><path stroke-linecap="butt" transform="matrix(0.75, 0, 0, 0.75, 71.579832, 133.267726)" fill="none" stroke-linejoin="miter" d="M 42.966477 61.523244 C 42.851894 62.851369 42.325852 64.012827 41.388352 65.002411 C 40.461269 65.991994 39.315435 66.814911 37.950852 67.481577 C 36.596685 68.143036 35.153977 68.637828 33.633143 68.965953 C 32.122726 69.278453 30.747726 69.434703 29.513351 69.434703 C 25.893559 69.434703 22.643559 68.570119 19.763351 66.835744 C 16.88835 65.106577 14.435225 62.866994 12.403975 60.116994 C 10.372725 57.372202 8.768558 54.31491 7.596683 50.955535 C 6.476891 47.700326 5.841475 44.507618 5.685225 41.366992 C 5.789391 44.611784 6.398766 47.882618 7.518558 51.18991 C 8.690433 54.616993 10.284183 57.715952 12.305017 60.486785 C 14.336267 63.262827 16.815434 65.512827 19.747726 67.247202 C 22.690434 68.976369 26.002934 69.846161 29.685226 69.846161 C 31.70606 69.846161 33.669601 69.523244 35.586268 68.887828 C 37.513352 68.247203 39.305019 67.361786 40.95606 66.231577 C 39.732102 68.106578 38.107102 69.439911 36.075852 70.236786 C 34.055018 71.044078 31.976893 71.445119 29.841476 71.445119 C 27.435226 71.445119 25.216476 71.106578 23.185226 70.429494 C 21.164392 69.768036 19.200851 68.715953 17.284184 67.283661 L 16.95085 65.997202 C 14.76335 64.669077 12.883142 63.023244 11.310225 61.054494 C 9.747725 59.075327 8.471683 56.93991 7.4821 54.648243 C 6.492516 52.34616 5.768558 49.93991 5.310225 47.43991 C 4.867516 44.929493 4.648766 42.424284 4.648766 39.924284 C 4.648766 37.252409 4.893558 34.601367 5.38835 31.971159 C 5.898766 29.330533 6.6071 26.726366 7.518558 24.158658 C 7.310225 24.158658 7.206058 24.080533 7.206058 23.924283 C 6.086266 26.3722 5.258141 28.908658 4.726891 31.523242 C 4.190433 34.143034 3.924808 36.804492 3.924808 39.512826 C 3.924808 44.695118 4.935225 49.674285 6.95085 54.455535 C 8.9821 59.22116 11.997725 63.257619 15.997725 66.564911 C 13.914392 64.960744 12.081058 63.127411 10.508142 61.054494 C 8.945642 58.97116 7.653975 56.747202 6.63835 54.37741 C 5.622725 51.991993 4.862308 49.523243 4.3571 46.971159 C 3.846683 44.408659 3.591475 41.814909 3.591475 39.200326 C 3.591475 35.6847 4.086266 32.101367 5.07585 28.455533 C 6.065433 24.799283 7.560225 21.476366 9.549808 18.497199 C 11.555017 15.502407 14.049809 13.059699 17.028975 11.174282 C 20.023767 9.27324 23.523767 8.320115 27.518559 8.320115 C 29.33106 8.320115 31.04981 8.611782 32.67481 9.200324 C 34.305018 9.783657 35.83106 10.559699 37.263352 11.52324 C 38.711268 12.486782 40.060227 13.580532 41.310227 14.804491 C 42.570644 16.028449 43.763352 17.278449 44.883144 18.554491 L 43.200852 20.002408 C 42.445644 19.741991 41.73731 19.330533 41.075852 18.768033 C 40.409185 18.210741 39.810227 17.632616 39.278977 17.033658 L 38.810227 17.596158 C 39.497727 18.403449 40.138352 19.330533 40.721685 20.372199 C 41.310227 21.398241 41.601894 22.476366 41.601894 23.596158 L 40.721685 25.038866 C 40.034185 24.986783 39.164394 24.575325 38.122727 23.8097 C 37.08106 23.02845 35.930018 22.200325 34.669602 21.330533 C 33.419601 20.445116 32.14356 19.627408 30.841476 18.887824 C 29.539393 18.132616 28.268559 17.752408 27.028976 17.752408 C 25.440434 17.752408 24.018559 18.158658 22.752934 18.965949 C 21.502934 19.757616 20.372726 20.799283 19.357101 22.09095 C 18.341475 23.366991 17.471684 24.830533 16.758142 26.486783 C 16.039392 28.137825 15.456059 29.820117 14.997725 31.523242 C 14.5446 33.231575 14.190434 34.898242 13.945642 36.523242 C 13.711267 38.153451 13.591475 39.575326 13.591475 40.799284 C 13.591475 42.882618 13.924809 45.184701 14.591475 47.695118 C 15.268559 50.195118 16.258142 52.528452 17.560225 54.68991 C 18.862309 56.851368 20.466476 58.653452 22.383142 60.09616 C 24.310226 61.528452 26.502934 62.247202 28.966476 62.247202 C 30.086268 62.247202 31.242518 62.12741 32.440435 61.893035 C 33.638351 61.648244 34.721685 61.231577 35.685227 60.643035 L 36.325852 61.366994 C 34.294602 62.903452 31.971685 63.674286 29.357101 63.674286 C 26.805018 63.674286 24.461268 63.059702 22.325851 61.835744 C 23.341476 62.528452 24.461268 63.033661 25.685226 63.361786 C 27.013351 63.736786 28.346684 63.924286 29.685226 63.924286 C 32.133143 63.924286 34.42481 63.231577 36.560227 61.835744 L 37.284185 62.872202 C 37.820643 62.28366 38.482102 61.710744 39.278977 61.153452 C 40.086269 60.590952 40.909185 60.262827 41.758144 60.15866 Z M 12.403975 45.450326 C 12.664392 48.53366 13.565433 51.491993 15.117517 54.31491 C 16.664392 57.090952 18.690434 59.330535 21.190434 61.03366 C 18.690434 59.278452 16.716475 57.012827 15.273767 54.236785 C 13.789392 51.413868 12.831058 48.481576 12.403975 45.450326 Z M 12.403975 45.450326 " stroke="#e6e6dd" stroke-width="6" stroke-opacity="1" stroke-miterlimit="4"/><g fill="#000000" fill-opacity="1"><g transform="translate(71.579832, 185.767723)"><g><path d="M 32.21875 -6.359375 C 32.132812 -5.359375 31.742188 -4.488281 31.046875 -3.75 C 30.347656 -3.007812 29.488281 -2.390625 28.46875 -1.890625 C 27.445312 -1.390625 26.363281 -1.019531 25.21875 -0.78125 C 24.082031 -0.539062 23.054688 -0.421875 22.140625 -0.421875 C 19.421875 -0.421875 16.976562 -1.066406 14.8125 -2.359375 C 12.65625 -3.660156 10.816406 -5.34375 9.296875 -7.40625 C 7.773438 -9.46875 6.578125 -11.757812 5.703125 -14.28125 C 4.859375 -16.71875 4.378906 -19.117188 4.265625 -21.484375 C 4.335938 -19.035156 4.796875 -16.570312 5.640625 -14.09375 C 6.515625 -11.539062 7.710938 -9.222656 9.234375 -7.140625 C 10.753906 -5.054688 12.613281 -3.363281 14.8125 -2.0625 C 17.019531 -0.769531 19.503906 -0.125 22.265625 -0.125 C 23.785156 -0.125 25.265625 -0.363281 26.703125 -0.84375 C 28.140625 -1.320312 29.476562 -1.976562 30.71875 -2.8125 C 29.800781 -1.414062 28.582031 -0.421875 27.0625 0.171875 C 25.539062 0.773438 23.976562 1.078125 22.375 1.078125 C 20.582031 1.078125 18.925781 0.828125 17.40625 0.328125 C 15.882812 -0.171875 14.398438 -0.960938 12.953125 -2.046875 L 12.71875 -3 C 11.082031 -4 9.671875 -5.238281 8.484375 -6.71875 C 7.304688 -8.195312 6.347656 -9.796875 5.609375 -11.515625 C 4.867188 -13.234375 4.328125 -15.03125 3.984375 -16.90625 C 3.648438 -18.789062 3.484375 -20.675781 3.484375 -22.5625 C 3.484375 -24.5625 3.671875 -26.550781 4.046875 -28.53125 C 4.429688 -30.507812 4.960938 -32.457031 5.640625 -34.375 C 5.484375 -34.375 5.40625 -34.4375 5.40625 -34.5625 C 4.5625 -32.71875 3.9375 -30.816406 3.53125 -28.859375 C 3.132812 -26.898438 2.9375 -24.898438 2.9375 -22.859375 C 2.9375 -18.984375 3.695312 -15.253906 5.21875 -11.671875 C 6.738281 -8.085938 9 -5.054688 12 -2.578125 C 10.4375 -3.773438 9.066406 -5.15625 7.890625 -6.71875 C 6.710938 -8.28125 5.742188 -9.953125 4.984375 -11.734375 C 4.222656 -13.515625 3.648438 -15.363281 3.265625 -17.28125 C 2.890625 -19.195312 2.703125 -21.132812 2.703125 -23.09375 C 2.703125 -25.738281 3.070312 -28.429688 3.8125 -31.171875 C 4.550781 -33.910156 5.671875 -36.398438 7.171875 -38.640625 C 8.671875 -40.878906 10.539062 -42.707031 12.78125 -44.125 C 15.019531 -45.550781 17.640625 -46.265625 20.640625 -46.265625 C 22.003906 -46.265625 23.296875 -46.039062 24.515625 -45.59375 C 25.734375 -45.15625 26.878906 -44.578125 27.953125 -43.859375 C 29.035156 -43.140625 30.046875 -42.316406 30.984375 -41.390625 C 31.929688 -40.472656 32.820312 -39.535156 33.65625 -38.578125 L 32.40625 -37.5 C 31.84375 -37.695312 31.3125 -38.003906 30.8125 -38.421875 C 30.3125 -38.847656 29.859375 -39.28125 29.453125 -39.71875 L 29.09375 -39.296875 C 29.613281 -38.703125 30.09375 -38.015625 30.53125 -37.234375 C 30.976562 -36.453125 31.203125 -35.640625 31.203125 -34.796875 L 30.546875 -33.71875 C 30.023438 -33.757812 29.375 -34.066406 28.59375 -34.640625 C 27.8125 -35.222656 26.945312 -35.84375 26 -36.5 C 25.0625 -37.164062 24.101562 -37.78125 23.125 -38.34375 C 22.144531 -38.90625 21.195312 -39.1875 20.28125 -39.1875 C 19.082031 -39.1875 18.007812 -38.882812 17.0625 -38.28125 C 16.125 -37.675781 15.273438 -36.894531 14.515625 -35.9375 C 13.753906 -34.976562 13.101562 -33.878906 12.5625 -32.640625 C 12.03125 -31.398438 11.59375 -30.140625 11.25 -28.859375 C 10.90625 -27.578125 10.644531 -26.328125 10.46875 -25.109375 C 10.289062 -23.890625 10.203125 -22.820312 10.203125 -21.90625 C 10.203125 -20.34375 10.453125 -18.617188 10.953125 -16.734375 C 11.453125 -14.859375 12.191406 -13.109375 13.171875 -11.484375 C 14.148438 -9.867188 15.359375 -8.519531 16.796875 -7.4375 C 18.234375 -6.351562 19.875 -5.8125 21.71875 -5.8125 C 22.5625 -5.8125 23.429688 -5.898438 24.328125 -6.078125 C 25.234375 -6.265625 26.046875 -6.578125 26.765625 -7.015625 L 27.234375 -6.484375 C 25.710938 -5.316406 23.972656 -4.734375 22.015625 -4.734375 C 20.097656 -4.734375 18.335938 -5.195312 16.734375 -6.125 C 17.492188 -5.601562 18.335938 -5.222656 19.265625 -4.984375 C 20.265625 -4.703125 21.265625 -4.5625 22.265625 -4.5625 C 24.097656 -4.5625 25.816406 -5.082031 27.421875 -6.125 L 27.953125 -5.34375 C 28.359375 -5.78125 28.859375 -6.207031 29.453125 -6.625 C 30.054688 -7.050781 30.675781 -7.300781 31.3125 -7.375 Z M 9.296875 -18.421875 C 9.492188 -16.097656 10.175781 -13.878906 11.34375 -11.765625 C 12.5 -9.679688 14.019531 -8 15.90625 -6.71875 C 14.019531 -8.039062 12.535156 -9.738281 11.453125 -11.8125 C 10.335938 -13.9375 9.617188 -16.140625 9.296875 -18.421875 Z M 9.296875 -18.421875 "/></g></g></g></svg>