<svg xmlns="http://www.w3.org/2000/svg" xmlns:xlink="http://www.w3.org/1999/xlink" width="500" zoomAndPan="magnify" viewBox="0 0 375 374.999991" height="500" preserveAspectRatio="xMidYMid meet" version="1.0"><defs><g/><clipPath id="239c2534ca"><path d="M 118.855469 92.863281 L 218.605469 92.863281 L 218.605469 257.863281 L 118.855469 257.863281 Z M 118.855469 92.863281 " clip-rule="nonzero"/></clipPath><clipPath id="ddf0a0a000"><path d="M 190 37 L 242 37 L 242 125 L 190 125 Z M 190 37 " clip-rule="nonzero"/></clipPath><clipPath id="916cce6f08"><path d="M 271.265625 94.839844 L 199.574219 137.160156 L 165.644531 79.679688 L 237.332031 37.359375 Z M 271.265625 94.839844 " clip-rule="nonzero"/></clipPath><clipPath id="3a4a396de7"><path d="M 271.265625 94.839844 L 199.574219 137.160156 L 165.644531 79.679688 L 237.332031 37.359375 Z M 271.265625 94.839844 " clip-rule="nonzero"/></clipPath><clipPath id="0959658834"><path d="M 188 106 L 223 106 L 223 130 L 188 130 Z M 188 106 " clip-rule="nonzero"/></clipPath><clipPath id="bbeddf0a7e"><path d="M 271.265625 94.839844 L 199.574219 137.160156 L 165.644531 79.679688 L 237.332031 37.359375 Z M 271.265625 94.839844 " clip-rule="nonzero"/></clipPath><clipPath id="de9ffb7542"><path d="M 271.265625 94.839844 L 199.574219 137.160156 L 165.644531 79.679688 L 237.332031 37.359375 Z M 271.265625 94.839844 " clip-rule="nonzero"/></clipPath><clipPath id="0cecd83a2c"><path d="M 192 121 L 202 121 L 202 131 L 192 131 Z M 192 121 " clip-rule="nonzero"/></clipPath><clipPath id="f88d685630"><path d="M 271.265625 94.839844 L 199.574219 137.160156 L 165.644531 79.679688 L 237.332031 37.359375 Z M 271.265625 94.839844 " clip-rule="nonzero"/></clipPath><clipPath id="8b65628c5a"><path d="M 271.265625 94.839844 L 199.574219 137.160156 L 165.644531 79.679688 L 237.332031 37.359375 Z M 271.265625 94.839844 " clip-rule="nonzero"/></clipPath></defs><g clip-path="url(#239c2534ca)"><path fill="#f5291a" d="M 197.878906 177.574219 C 195.5625 169.507812 193.230469 161.609375 200.007812 154.027344 C 197.644531 161.6875 200.5 168.1875 202.652344 174.789062 C 203.328125 176.855469 204.027344 178.984375 202.484375 180.960938 C 202.132812 181.417969 201.199219 181.972656 200.871094 181.800781 C 198.277344 180.496094 195.609375 180.984375 193.097656 181.65625 C 189.9375 182.496094 186.96875 182.136719 183.84375 181.589844 C 181.664062 181.210938 179.328125 181.503906 177.089844 181.730469 C 176.71875 181.769531 176.351562 181.734375 175.996094 181.621094 C 175.640625 181.511719 175.320312 181.328125 175.039062 181.082031 C 174.761719 180.832031 174.542969 180.535156 174.390625 180.195312 C 174.234375 179.855469 174.15625 179.496094 174.15625 179.121094 C 174.148438 177.453125 174.363281 175.808594 174.800781 174.199219 C 175.769531 170.359375 176.9375 166.5625 177.9375 162.726562 C 178.734375 159.644531 178.285156 156.609375 177.097656 153.71875 C 176.308594 151.859375 175.785156 149.929688 175.535156 147.929688 C 175.285156 145.925781 175.3125 143.925781 175.621094 141.929688 C 173.074219 143.988281 171.953125 146.3125 171.847656 148.671875 C 168.859375 149.003906 165.980469 149.28125 163.074219 149.664062 C 160.976562 149.941406 159.1875 149.691406 157.972656 147.734375 C 157.570312 147.230469 157.136719 146.753906 156.667969 146.3125 C 156.792969 147.761719 156.871094 148.695312 156.976562 149.882812 C 154.460938 147.570312 154.339844 144.777344 155.144531 142.109375 C 155.726562 140.179688 156.785156 138.054688 158.289062 136.820312 C 162.375 133.464844 166.800781 130.566406 171.105469 127.5 C 172.460938 126.535156 173.808594 126.820312 175.242188 127.46875 C 182.90625 130.96875 187.007812 137.234375 187.675781 145.277344 C 188.515625 155.203125 188.472656 165.203125 188.761719 175.167969 C 188.855469 178.308594 188.761719 178.332031 191.890625 178.101562 C 193.777344 178.019531 195.621094 177.785156 197.878906 177.574219 Z M 183.835938 190.355469 C 181.089844 188.59375 178.234375 187.03125 175.269531 185.667969 C 171.65625 183.988281 169.539062 181.1875 170.203125 177.28125 C 170.824219 173.597656 172.207031 170.054688 173.003906 166.378906 C 173.441406 164.289062 173.601562 162.179688 173.476562 160.046875 C 173.441406 159.402344 172.15625 158.320312 171.414062 158.300781 C 168.246094 158.195312 166.1875 156.710938 164.78125 153.984375 C 164.398438 153.453125 163.882812 153.117188 163.242188 152.980469 C 161.59375 152.558594 159.886719 152.289062 157.691406 151.847656 C 156.570312 153.855469 155.003906 156.175781 153.976562 158.710938 C 153.34375 160.355469 153.1875 162.042969 153.5 163.777344 C 154.960938 171.386719 161.046875 175.789062 165.6875 181.386719 C 166.351562 177.734375 166.945312 174.40625 167.574219 171.074219 L 168.167969 171.183594 C 167.910156 178.066406 167.65625 184.9375 167.402344 191.804688 L 169.132812 192.429688 L 169.09375 192.746094 L 167.46875 192.863281 C 167.347656 196.492188 167.929688 197.675781 171.269531 198.636719 C 173.367188 199.234375 175.71875 199.582031 177.804688 199.199219 C 181.046875 198.605469 184.160156 197.296875 187.5 196.234375 C 186.933594 193.507812 185.746094 191.570312 183.835938 190.355469 Z M 204.027344 206.949219 C 204.238281 205.660156 204.027344 204.851562 202.65625 204.398438 C 201.144531 203.90625 199.703125 203.179688 198.230469 202.542969 C 192.398438 200.027344 186.535156 199.605469 180.597656 202.210938 C 178.6875 203.050781 176.671875 203.652344 174.789062 204.542969 C 174.101562 204.921875 173.699219 205.503906 173.582031 206.277344 C 173.527344 209.992188 175.132812 212.960938 178.082031 215.328125 L 178.402344 213.175781 L 180.566406 216.882812 C 180.703125 215.667969 180.792969 214.917969 180.898438 214.011719 L 183.578125 217.367188 L 183.578125 213.050781 L 183.9375 213.050781 C 184.136719 213.851562 184.355469 214.65625 184.597656 215.714844 C 184.917969 214.457031 185.144531 213.578125 185.4375 212.457031 C 185.792969 212.992188 185.964844 213.242188 186.136719 213.507812 L 187.53125 211.828125 C 187.808594 212.800781 187.980469 213.40625 188.128906 213.925781 C 188.410156 213.347656 188.710938 212.710938 189.171875 211.753906 C 189.449219 212.746094 189.617188 213.339844 189.847656 214.167969 C 190.355469 213.382812 190.6875 212.878906 191.195312 212.070312 L 192.335938 215.007812 C 192.644531 214.097656 192.871094 213.425781 193.097656 212.753906 L 193.480469 212.785156 C 193.65625 214.089844 193.835938 215.394531 194.0625 217.039062 L 196.296875 213.351562 C 196.480469 214.792969 196.601562 215.753906 196.746094 216.894531 L 198.769531 212.871094 C 198.882812 214.09375 198.9375 214.675781 199 215.339844 C 202.878906 211.808594 203.375 210.902344 204.027344 206.949219 Z M 209.457031 174.921875 C 209.347656 172.9375 208.765625 170.707031 207.652344 169.105469 C 205.035156 165.332031 204.886719 162.78125 210.308594 161.589844 C 214.167969 160.753906 216.820312 156.941406 216.921875 153.039062 C 215.886719 152.988281 214.851562 153.003906 213.820312 153.074219 C 213.296875 153.167969 212.914062 153.445312 212.664062 153.914062 C 211.769531 156.847656 209.535156 157.992188 206.796875 158.035156 C 204.675781 158.070312 203.9375 159.171875 203.703125 160.910156 C 203.53125 161.875 203.554688 162.832031 203.769531 163.785156 C 204.808594 167.453125 206.128906 171.050781 207.066406 174.75 C 208.496094 180.363281 206.871094 183.421875 201.542969 185.757812 C 201.171875 185.949219 200.792969 186.117188 200.398438 186.253906 C 196.867188 187.1875 194.359375 189.660156 191.933594 192.121094 C 190.992188 193.074219 190.617188 194.585938 189.90625 195.996094 C 192.898438 197.121094 195.453125 198.207031 198.089844 199.035156 C 199.605469 199.515625 201.152344 199.6875 202.734375 199.550781 C 204.316406 199.414062 205.8125 198.976562 207.21875 198.246094 C 208.238281 197.734375 209.449219 196.71875 209.679688 195.730469 C 210.097656 193.992188 209.792969 192.101562 209.792969 190.300781 L 207.410156 189.816406 C 208.210938 189.511719 208.519531 189.371094 208.835938 189.28125 C 209.15625 189.1875 209.511719 189.125 209.554688 189.117188 C 209.542969 184.242188 209.714844 179.570312 209.457031 174.921875 Z M 147.183594 226.960938 C 143.480469 220.546875 140.785156 214.382812 139.65625 207.675781 C 138.96875 203.890625 138.757812 200.078125 139.019531 196.242188 C 139.589844 189.46875 143.371094 184.148438 147.960938 179.378906 C 148.445312 178.878906 148.898438 178.359375 149.363281 177.847656 C 148.855469 177.742188 148.386719 177.839844 147.957031 178.136719 C 146.964844 178.789062 145.953125 179.417969 145.023438 180.144531 C 137.269531 186.164062 133.210938 194.082031 134.542969 203.859375 C 136.453125 217.917969 144.542969 229.015625 153.074219 239.777344 C 148.089844 227.695312 150.492188 216.023438 154.75 204.425781 C 149.8125 210.933594 147.769531 218.410156 147.183594 226.960938 Z M 126.023438 200.015625 C 125.722656 198.867188 125.453125 197.71875 125.160156 196.570312 C 122.363281 185.554688 124.980469 176.027344 133.015625 167.980469 C 137.441406 163.539062 141.820312 159.03125 146.160156 154.523438 C 146.484375 154.1875 146.542969 153.605469 146.726562 153.132812 C 146.308594 153.132812 145.75 153.003906 145.46875 153.21875 C 139.699219 157.925781 133.570312 162.300781 128.289062 167.535156 C 121.742188 173.980469 119.976562 182.265625 121.632812 191.285156 C 122.824219 197.75 125.558594 203.601562 128.714844 209.289062 C 128.957031 209.628906 129.234375 209.941406 129.550781 210.214844 C 127.457031 199.214844 129.28125 189.164062 135.765625 180 C 128.742188 185.054688 126.800781 192.320312 126.589844 200.621094 C 126.195312 200.207031 126.042969 200.125 126.023438 200.015625 Z M 140.90625 133.828125 C 132.597656 140.925781 125.742188 149.226562 120.347656 158.730469 C 119.789062 159.71875 119.375 160.785156 118.894531 161.8125 C 119.488281 161.675781 119.992188 161.382812 120.40625 160.9375 C 122.742188 158.839844 124.910156 156.527344 127.453125 154.726562 C 132.332031 151.257812 137.957031 149.34375 143.632812 147.539062 C 145.015625 147.09375 146.179688 145.976562 147.445312 145.171875 L 147.027344 144.488281 C 140.214844 145.359375 133.878906 147.582031 128.015625 151.15625 C 135.398438 142.351562 144.679688 136.164062 154.691406 130.882812 C 149.601562 129.925781 144.835938 130.476562 140.90625 133.828125 Z M 160.070312 207.410156 C 156.925781 214.914062 155.761719 222.503906 159.234375 230.269531 C 161.417969 235.164062 165.3125 238.527344 169.578125 241.53125 C 176.285156 246.273438 183.652344 250.300781 188.121094 257.710938 C 187.789062 256.273438 187.324219 254.882812 186.722656 253.539062 C 184.550781 248.707031 180.578125 245.519531 176.570312 242.332031 C 175.3125 241.328125 174.3125 240.007812 173.347656 238.976562 L 173.347656 239.890625 C 165.304688 235.667969 160.1875 227.664062 160.265625 218.617188 C 160.300781 213.734375 161.15625 208.855469 161.621094 204.207031 C 161.1875 205.078125 160.570312 206.21875 160.070312 207.410156 Z M 130.0625 131.605469 C 132.609375 129.140625 135.039062 126.527344 137.796875 124.320312 C 139.246094 123.15625 141.226562 122.539062 143.058594 121.996094 C 146.832031 120.886719 150.300781 122.273438 153.828125 123.417969 C 156.191406 124.1875 158.671875 124.609375 161.210938 125.214844 C 158.960938 123.5625 156.855469 122.21875 154.988281 120.601562 C 150.285156 116.515625 143.367188 115.757812 138.574219 119.191406 C 133.625 122.738281 130.816406 127.925781 128.449219 133.445312 C 128.988281 132.816406 129.484375 132.167969 130.0625 131.605469 Z M 202.296875 146.894531 C 201.960938 144.800781 202.128906 142.089844 200.878906 140.859375 C 198.519531 138.53125 195.71875 136.761719 195.289062 132.84375 C 193.613281 135.402344 192.054688 137.832031 191.1875 140.480469 C 189.414062 145.882812 188.847656 147.539062 196.359375 146.589844 C 199.761719 146.171875 200.027344 146.171875 201.875 149.171875 C 202.058594 148.25 202.398438 147.539062 202.296875 146.894531 Z M 143.671875 112.089844 C 148.1875 111.355469 152.855469 111.421875 157.433594 111.136719 C 151.785156 109.445312 146.039062 108.980469 140.195312 109.746094 L 158.421875 99.164062 C 154.277344 98.117188 136.71875 108.519531 130.660156 115.546875 C 134.828125 114.398438 139.1875 112.832031 143.671875 112.089844 Z M 177.007812 110.542969 C 173.953125 103.714844 170.71875 97.160156 162.273438 95.566406 C 166.167969 93.855469 169.960938 93.601562 173.933594 94.003906 C 173.46875 93.480469 172.933594 92.90625 172.398438 92.90625 C 170.242188 92.84375 168.089844 92.925781 165.945312 93.144531 C 161.878906 93.636719 157.835938 94.300781 153.484375 94.9375 C 163.371094 97.265625 170.046875 104.089844 177.007812 110.542969 Z M 205.746094 149.660156 C 208.359375 148.117188 210.960938 148.675781 213.597656 149.382812 C 215.183594 149.800781 216.832031 150.09375 218.347656 148.925781 C 215.964844 146.300781 210.304688 145.082031 207.476562 146.691406 C 206.59375 147.1875 206.054688 148.277344 205.351562 149.097656 Z M 172.5625 154.808594 C 171.933594 152.882812 170.792969 151.582031 168.53125 151.871094 C 167.988281 151.933594 167.109375 152.203125 167.035156 152.53125 C 166.925781 153.003906 167.257812 153.953125 167.648438 154.117188 C 169.140625 154.75 170.734375 155.152344 172.289062 155.636719 C 172.375 155.347656 172.464844 155.074219 172.5625 154.808594 Z M 205.511719 155.089844 C 208.867188 155.507812 210.125 154.8125 210.59375 152.246094 C 207.589844 151.183594 205.960938 152.085938 205.503906 155.089844 Z M 205.511719 155.089844 " fill-opacity="1" fill-rule="nonzero"/></g><g clip-path="url(#ddf0a0a000)"><g clip-path="url(#916cce6f08)"><g clip-path="url(#3a4a396de7)"><path fill="#028a57" d="M 237.757812 38.074219 C 237.519531 44.53125 238.382812 51.050781 237.488281 57.519531 C 235.980469 69.292969 232.269531 80.832031 226.070312 90.976562 C 225.808594 91.636719 226.503906 92.226562 226.761719 92.777344 C 226.941406 93.058594 227.125 93.125 227.332031 92.773438 C 232.292969 85 236.261719 76.515625 238.285156 67.492188 C 239.378906 63.023438 239.984375 58.457031 240.359375 53.878906 C 240.605469 52.21875 240.253906 50.386719 240.757812 48.796875 C 241.574219 60.875 240.421875 73.566406 236.179688 85.035156 C 234.785156 88.882812 233.226562 92.652344 231.21875 96.222656 C 229.652344 98.796875 229.609375 99.132812 230.316406 102.136719 C 233.835938 97.3125 236.457031 91.757812 237.941406 85.96875 C 238.46875 84.042969 238.285156 81.835938 239.046875 80.015625 C 239.433594 80.464844 239.140625 81.144531 239.132812 81.695312 C 238.460938 86.648438 237.734375 91.601562 235.675781 96.214844 C 234.367188 99.703125 232.460938 102.878906 230.527344 106.058594 C 230.066406 107.875 229.429688 109.730469 229.070312 111.582031 C 231.382812 109.46875 233.0625 106.453125 234.417969 103.601562 C 235.191406 101.933594 235.695312 100.171875 236.105469 98.382812 C 236.195312 98.105469 236.277344 97.816406 236.578125 97.71875 C 235.460938 106.996094 227.828125 116.535156 220.25 121.675781 C 210.742188 127.34375 197.488281 123.234375 192.597656 113.375 C 187.796875 103.570312 191.648438 95.089844 197.953125 87.199219 C 199.964844 84.316406 202.65625 81.972656 205.296875 79.679688 C 206.230469 78.980469 207.300781 78.46875 208.320312 77.867188 C 209.164062 77.449219 210 76.609375 210.96875 76.652344 C 210.046875 77.660156 208.527344 78.132812 207.398438 78.945312 C 204.117188 81.148438 201.222656 84.257812 199.167969 87.546875 C 205.4375 83.660156 210.535156 78.039062 215.523438 72.632812 C 223.308594 63.800781 228.847656 52.992188 230.917969 41.382812 C 230.984375 41.316406 231.074219 41.261719 231.195312 41.21875 C 229.582031 57.644531 220.148438 72.683594 208.863281 84.339844 C 208.957031 84.363281 209.082031 84.4375 209.160156 84.417969 C 210.078125 84.117188 211 84.261719 211.9375 84.335938 C 213.65625 84.453125 215.105469 81.242188 216.183594 80.046875 C 217.910156 77.574219 219.300781 74.902344 220.496094 72.144531 C 220.910156 71.449219 220.964844 70.484375 221.675781 70.011719 C 221.222656 72.316406 220.355469 74.636719 219.660156 76.914062 C 219 78.769531 217.894531 80.460938 217.261719 82.324219 C 218.5 81.648438 218.894531 80.082031 219.71875 78.996094 C 221.988281 75.460938 224.03125 71.789062 225.753906 67.964844 C 226.652344 66.035156 227.496094 64.082031 227.976562 62.003906 C 228.476562 60.417969 228.570312 58.613281 229.441406 57.179688 C 229.65625 58.402344 229.050781 59.585938 228.867188 60.785156 C 228.347656 64.527344 226.808594 67.992188 225.839844 71.585938 C 226.09375 71.453125 226.398438 71.378906 226.472656 71.054688 C 228.5625 66.519531 230.941406 62.089844 232.125 57.210938 C 232.574219 55.558594 232.910156 53.871094 233.257812 52.183594 C 233.613281 50.976562 233.320312 49.539062 234.128906 48.515625 C 234.132812 51.949219 233.503906 55.421875 233.042969 58.835938 C 233.015625 59.894531 231.8125 62.640625 232.269531 63.277344 C 234.40625 58.433594 235.28125 52.988281 236.300781 47.792969 C 236.617188 45.195312 236.769531 42.585938 237.019531 39.988281 C 237.105469 39.179688 236.945312 38.328125 237.484375 37.613281 C 237.570312 37.761719 237.65625 37.910156 237.757812 38.074219 M 208.414062 101.851562 C 208.5 102.628906 208.050781 103.679688 208.664062 104.289062 C 210.351562 105.382812 212.058594 106.46875 213.777344 107.53125 C 213.964844 107.644531 214.269531 107.734375 214.4375 107.660156 C 215.980469 107.09375 217.4375 106.222656 218.980469 105.699219 C 220.082031 105.804688 219.496094 100.703125 219.660156 99.714844 C 219.683594 98.902344 219.023438 98.414062 218.371094 98.054688 C 217.285156 97.480469 214.605469 94.789062 213.617188 95.144531 C 208.027344 97.792969 208.554688 95.457031 208.414062 101.851562 M 192.046875 104.589844 C 192.640625 90.972656 209.570312 83.800781 220.078125 92.195312 C 225.433594 96.1875 227.917969 103.445312 226.511719 109.90625 C 225.769531 113.25 224.007812 116.421875 221.378906 118.652344 C 221.144531 118.910156 220.746094 119.226562 220.835938 119.625 C 231.464844 112.136719 230.519531 95.035156 218.976562 88.769531 C 206.210938 81.472656 189.738281 92.234375 191.824219 106.625 C 192.214844 106.046875 191.933594 105.320312 192.046875 104.589844 M 197.648438 105.613281 C 203.902344 108.804688 200.984375 107.996094 207.15625 104.527344 C 207.851562 104.035156 207.746094 103.207031 207.746094 102.484375 C 207.605469 101.25 208.449219 97.675781 207.511719 97.03125 C 206.066406 96.367188 204.574219 95.78125 203.113281 95.113281 C 202.085938 94.519531 201.492188 95.859375 200.714844 96.328125 C 199.699219 97.382812 197.367188 98.238281 197.128906 99.726562 C 197.351562 101.097656 196.300781 105.113281 197.648438 105.613281 M 218.949219 116.878906 C 219.898438 116.277344 221.261719 116.125 221.585938 114.851562 C 221.960938 113.183594 222.472656 111.546875 222.90625 109.890625 C 222.707031 108.757812 221.296875 107.886719 220.605469 106.960938 C 220.246094 106.574219 219.925781 105.964844 219.257812 106.1875 C 217.871094 106.660156 216.609375 107.523438 215.222656 107.996094 C 214.460938 108.21875 214.019531 108.640625 213.746094 109.375 C 213.582031 110.402344 211.261719 114.4375 211.980469 114.824219 C 215.957031 118.402344 214.140625 118.996094 218.949219 116.878906 M 196.898438 105.921875 C 195.933594 106.410156 195.398438 107.417969 194.65625 108.175781 C 193.5625 109.183594 194.925781 110.679688 195.140625 111.859375 C 196.652344 116.585938 196.453125 115.613281 200.652344 117.835938 C 201.671875 118.296875 202.566406 116.199219 203.242188 115.613281 C 203.644531 115.097656 204.035156 114.652344 203.675781 113.839844 C 203.125 112.59375 202.835938 111.246094 202.378906 109.972656 C 202.125 109.292969 202.050781 108.472656 201.207031 108.144531 C 199.734375 107.457031 198.414062 106.664062 196.898438 105.921875 M 202.675781 117.292969 C 202.425781 117.789062 201.386719 118.308594 202.054688 118.832031 C 202.933594 119.6875 203.789062 120.578125 204.703125 121.398438 C 206.339844 122.550781 209.550781 121.71875 211.59375 122.042969 C 213.15625 121.894531 213.730469 120.089844 214.71875 119.082031 C 215.125 118.296875 212.578125 116.441406 212.058594 115.722656 C 211.605469 115.269531 211.183594 114.828125 210.367188 114.886719 C 208.589844 115.28125 204.777344 114.242188 203.773438 115.832031 C 203.480469 116.328125 203.050781 116.753906 202.675781 117.292969 M 213.960938 93.652344 C 215.113281 95.289062 217.140625 96.152344 218.625 97.492188 C 219.921875 98.601562 220.6875 98.683594 222.359375 98.496094 C 223.894531 98.882812 222.410156 95.175781 221.804688 94.757812 C 219.355469 92.4375 216.410156 89.859375 212.800781 90.765625 C 212.394531 91.085938 213.769531 92.992188 213.960938 93.652344 M 194.789062 97.839844 C 195.480469 99.007812 197.21875 98.59375 198.085938 97.761719 C 199.492188 96.4375 201.230469 95.414062 202.539062 94.027344 C 203.265625 93.15625 203.777344 92.125 204.382812 91.167969 C 204.695312 90.660156 204.652344 90.542969 204.066406 90.515625 C 203.136719 90.476562 202.265625 90.765625 201.507812 91.238281 C 198.789062 92.949219 196.378906 94.933594 194.789062 97.839844 M 225.035156 107.222656 C 223.125 109.988281 222.613281 113.273438 221.734375 116.457031 C 221.667969 116.792969 221.578125 117.136719 221.785156 117.441406 C 224.628906 114.269531 226.339844 109.863281 226.191406 105.59375 C 225.621094 105.984375 225.429688 106.605469 225.035156 107.222656 M 193.511719 111.582031 C 193.957031 112.917969 194.6875 114.136719 195.355469 115.382812 C 195.558594 115.609375 195.648438 116.234375 196.019531 116.148438 C 195.617188 114.242188 194.464844 112.3125 193.910156 110.359375 C 193.429688 109.367188 193.484375 107.988281 192.632812 107.253906 C 192.351562 108.484375 193.269531 110.179688 193.511719 111.582031 M 208.28125 90.011719 C 210.140625 89.953125 212.078125 90.285156 213.90625 89.953125 C 213.382812 89.222656 205.421875 89.089844 205.15625 90.019531 C 205.632812 90.351562 207.453125 89.980469 208.28125 90.011719 M 224.078125 97.933594 C 223.894531 97.550781 223.714844 97.160156 223.53125 96.777344 C 223.507812 96.738281 223.417969 96.722656 223.371094 96.6875 C 223.199219 97.640625 224.792969 101.398438 225.605469 101.894531 C 225.507812 100.511719 224.574219 99.332031 224.078125 97.933594 M 207.179688 122.890625 C 208.320312 122.925781 209.464844 122.96875 210.605469 122.988281 C 210.730469 122.992188 210.851562 122.855469 210.976562 122.78125 C 210.839844 122.730469 210.726562 122.625 210.585938 122.613281 C 209.199219 122.605469 207.785156 122.335938 206.414062 122.609375 C 206.640625 122.71875 206.851562 122.832031 207.179688 122.890625 " fill-opacity="1" fill-rule="nonzero"/></g></g></g><g clip-path="url(#0959658834)"><g clip-path="url(#bbeddf0a7e)"><g clip-path="url(#de9ffb7542)"><path fill="#028a57" d="M 219.851562 125 C 213.46875 128.941406 205.101562 131.484375 198.78125 125.945312 C 196.652344 124.324219 195.40625 121.851562 192.960938 120.644531 C 188.605469 117.527344 187.984375 111.691406 188.628906 106.804688 C 189.519531 109.105469 189.539062 111.824219 190.324219 114.210938 C 191.726562 119.269531 196.667969 121.664062 201.035156 123.667969 C 199.636719 124.121094 197.902344 122.5625 196.578125 122.757812 C 205.917969 130.589844 212.285156 127.339844 222.203125 123.1875 C 222.085938 123.347656 222.015625 123.5625 221.863281 123.667969 C 221.214844 124.101562 220.554688 124.492188 219.90625 124.929688 C 219.921875 124.960938 219.871094 124.988281 219.84375 125.007812 " fill-opacity="1" fill-rule="nonzero"/></g></g></g><g clip-path="url(#0cecd83a2c)"><g clip-path="url(#f88d685630)"><g clip-path="url(#8b65628c5a)"><path fill="#028a57" d="M 199.097656 129.6875 C 199.777344 129.886719 200.410156 130.058594 201.03125 130.277344 C 201.265625 130.351562 201.460938 130.503906 201.667969 130.632812 C 196.328125 131.148438 192.902344 126.339844 192.875 121.375 C 193.445312 121.730469 193.351562 122.570312 193.632812 123.136719 C 194.308594 126.082031 196.117188 128.71875 199.109375 129.679688 " fill-opacity="1" fill-rule="nonzero"/></g></g></g><path stroke-linecap="butt" transform="matrix(0.141446, -0.0215304, 0.0215304, 0.141446, 88.25277, 245.871224)" fill="none" stroke-linejoin="miter" d="M 308.797213 92.294264 L 308.798929 93.371572 C 308.803813 102.955271 306.722156 112.276597 302.562177 121.281568 C 298.456181 130.294756 292.923187 138.7041 285.971413 146.455617 C 279.054848 154.15726 271.285745 160.928252 262.691097 166.772701 C 254.100558 172.59016 245.231942 177.15016 236.143341 180.433929 C 227.031857 183.686599 218.274848 185.33623 209.85354 185.324732 C 201.953282 185.337313 194.760152 183.60722 188.211952 180.180217 C 181.694852 176.730332 176.509215 171.246174 172.605168 163.692535 C 168.755102 156.147113 166.806852 146.267602 166.8144 134.062221 C 166.810141 123.56727 168.674777 112.224516 172.354324 100.025741 C 176.033872 87.826966 181.193255 75.522048 187.824257 63.164967 C 194.459368 50.780896 202.274447 38.990684 211.304701 27.744457 C 220.303856 16.521113 230.153779 6.421467 240.792272 -2.508716 C 251.457755 -11.43479 262.638931 -18.48729 274.385673 -23.631006 C 286.163515 -28.797606 298.072098 -31.375962 310.115533 -31.393065 C 319.560166 -31.3915 326.976871 -30.041624 332.396745 -27.366319 C 337.793736 -24.722114 341.695602 -21.145595 344.079459 -16.667862 C 346.521406 -12.208903 347.739336 -7.328695 347.72914 -2.000246 C 347.727108 4.544575 346.40308 11.247183 343.698963 18.12635 C 341.057045 24.959753 337.784969 31.034436 333.905618 36.381501 C 330.030375 41.701575 326.304234 45.497816 322.700205 47.766115 C 319.434691 37.106147 315.461995 29.459209 310.813217 24.802418 C 306.191431 20.149734 301.216313 17.818295 295.887864 17.808099 C 290.586407 17.802011 285.136418 19.678859 279.542008 23.411651 C 273.955815 27.090461 268.462868 31.970978 263.063167 38.053202 C 257.663466 44.135425 252.547147 50.895965 247.714209 58.334822 C 242.947579 65.700922 238.689673 73.172075 235.002691 80.702516 C 231.311601 88.259947 228.435551 95.361493 226.324669 101.971945 C 224.267769 108.590614 223.255362 114.153142 223.241682 118.59733 C 223.256761 122.85258 224.833275 126.102758 228.03753 128.27511 C 231.218903 130.416362 235.475868 131.478591 240.804317 131.488787 C 246.796989 131.489622 253.640534 130.073446 261.357836 127.271357 C 269.110347 124.419394 277.146915 120.064142 285.463434 114.232589 C 293.811053 108.378155 301.581352 101.055013 308.797213 92.294264 Z M 403.863203 190.746897 C 403.854731 182.819647 404.636648 174.598459 406.200738 166.137315 C 407.746054 157.61808 409.706224 148.913443 412.116455 139.973531 C 407.836554 140.150558 402.994519 140.573417 397.582132 141.296092 C 392.177962 141.964785 386.888205 142.788976 381.71697 143.741674 C 376.576835 144.67149 372.221214 145.527405 368.704087 146.317637 C 365.19107 147.080878 363.247079 147.696318 362.917879 148.226157 C 367.016231 139.626053 370.751318 132.323868 374.123142 126.319601 C 377.463866 120.338216 381.080326 115.448233 384.941423 111.672535 C 388.783745 107.838746 393.601235 105.037124 399.344018 103.23246 C 405.113792 101.431906 412.485408 100.537975 421.404883 100.542453 C 425.361364 88.88293 428.574935 78.656853 431.041488 69.891214 C 433.562024 61.133791 434.817924 55.967342 434.80508 54.418858 C 434.827391 54.090855 433.940789 53.928283 432.230358 53.916477 C 424.847402 59.420651 416.833039 65.98861 408.15206 73.67023 C 399.452306 81.293759 390.875131 90.289159 382.347777 100.590121 C 373.851522 110.868201 366.061666 122.855569 359.013418 136.50235 C 352.019152 150.157348 346.254675 165.711768 341.788635 183.25891 C 337.510503 183.24289 332.896775 182.347289 328.005543 180.553333 C 323.08732 178.755269 318.477182 176.203219 314.17102 172.924176 C 309.887741 169.676232 306.404838 165.88732 303.714092 161.611422 C 301.07733 157.343742 299.756115 152.779211 299.769223 147.975921 C 299.761322 140.407774 302.121055 132.343905 306.856638 123.730333 C 311.615104 115.14786 317.863391 106.212214 325.682472 96.935721 C 333.470454 87.68211 341.997184 78.292399 351.289653 68.770697 C 360.590339 59.195013 369.870482 49.754285 379.1383 40.39453 C 388.406118 31.034776 396.941636 21.950185 404.753073 13.086777 C 412.587392 4.254468 418.849148 -4.043946 423.557115 -11.750375 C 428.300291 -19.506678 430.669956 -26.547221 430.67022 -32.898995 C 430.651551 -35.497796 430.328334 -37.728705 429.650694 -39.626931 C 435.145199 -39.619075 441.596096 -38.637143 448.972287 -36.658252 C 456.352587 -34.706352 463.553881 -31.759886 470.611377 -27.868728 C 477.64599 -24.00867 483.484149 -19.364151 488.102971 -13.966271 C 492.744675 -8.537292 495.085626 -2.326245 495.090615 4.716743 C 495.077506 9.520034 493.855566 16.459113 491.424792 25.533982 C 489.043892 34.644059 486.046823 45.262106 482.433583 57.388124 C 478.824452 69.487151 475.222913 82.443448 471.610192 96.198924 C 468.005689 109.900417 465.020215 123.889453 462.626779 138.161923 C 460.237451 152.407402 459.026376 166.169431 459.024653 179.42513 C 459.048672 194.507441 461.165159 208.361732 465.45509 221.000327 C 469.776121 233.61604 477.437145 243.70233 488.411172 251.255089 C 486.528809 251.465661 484.635888 251.56416 482.759401 251.554693 C 480.851814 251.56811 478.948336 251.554535 477.013758 251.563843 C 458.317538 251.562481 443.641968 248.914371 432.995267 243.56553 C 422.344457 238.24368 414.808298 230.965671 410.409672 221.762604 C 406.038038 212.563645 403.854512 202.234073 403.863203 190.746897 Z M 476.288895 157.446653 C 476.294411 151.786093 477.752252 144.385822 480.643644 135.187751 C 483.562028 125.993789 487.315423 115.849882 491.831074 104.689723 C 496.400706 93.537781 501.220905 82.009731 506.314552 70.136671 C 511.3771 58.286495 516.184973 46.839418 520.698855 35.872306 C 525.270828 24.886419 529.014238 14.989542 531.893877 6.231547 C 534.827498 -2.51823 536.302917 -9.30826 536.311917 -14.084559 C 536.297928 -16.351249 536.105558 -18.534624 535.689042 -20.696885 C 535.268417 -22.832155 534.451141 -25.083035 533.214332 -27.480624 C 534.598528 -27.684176 535.9393 -27.783871 537.182663 -27.787926 C 538.480009 -27.783765 539.750364 -27.783713 540.966737 -27.791877 C 553.338174 -27.78667 563.121887 -26.021263 570.348976 -22.518539 C 577.544964 -18.992932 583.009927 -14.073821 586.693989 -7.796413 C 590.38216 -1.545997 592.867999 5.708918 594.124516 13.964223 C 595.408024 22.223637 596.165177 31.038112 596.315002 40.395323 C 596.522917 49.733761 596.766613 59.381427 597.000323 69.276122 C 597.269242 79.120943 598.2417 88.879539 599.975789 98.533134 C 603.243756 92.485442 606.850337 85.301779 610.791421 77.009136 C 614.740723 68.662511 618.703546 59.682762 622.733874 50.078108 C 626.79941 40.423579 630.690674 30.825373 634.366007 21.1943 C 638.068332 11.567334 641.414467 2.466099 644.373311 -6.086523 C 647.394354 -14.684911 649.763447 -22.084556 651.484699 -28.312451 C 656.318465 -27.410973 660.863491 -25.338317 665.142662 -22.063382 C 669.457041 -18.83832 672.977493 -14.933226 675.708126 -10.375092 C 678.465752 -5.812848 679.866171 -1.042945 679.859512 3.89941 C 679.8528 10.11212 678.296354 18.160179 675.213059 28.074687 C 672.110989 37.931104 668.101723 49.03026 663.181152 61.399146 C 658.314563 73.77625 652.950951 86.878579 647.086207 100.733125 C 641.26078 114.510806 635.499892 128.408778 629.857526 142.435257 C 624.192278 156.430636 619.122033 169.964253 614.623907 183.005007 C 611.345022 183.500104 608.103112 183.75228 604.871189 183.757427 C 595.565619 183.749413 588.069138 181.835062 582.416953 177.964499 C 576.760659 174.120927 572.326667 168.778799 569.133752 161.996203 C 565.998927 155.194834 563.518393 147.360778 561.715031 138.525136 C 559.91167 129.689493 558.291995 120.191396 556.820797 110.080719 C 555.353709 99.94305 553.498186 89.635789 551.285329 79.136052 C 545.081558 89.956402 539.465717 101.087177 534.491788 112.536594 C 529.521968 123.95902 525.292091 134.693197 521.77106 144.762007 C 518.258245 154.776834 515.546431 163.339442 513.658498 170.480929 C 511.770566 177.622416 510.757015 182.466739 510.582637 185.063771 C 510.028719 185.255622 509.464244 185.335399 508.885104 185.330094 C 508.305963 185.324789 507.726822 185.319484 507.174672 185.318288 C 502.035162 185.336851 497.065868 184.055728 492.347765 181.487245 C 487.633771 178.89177 483.792337 175.462533 480.773588 171.164324 C 477.78594 166.843234 476.29867 162.281043 476.288895 157.446653 Z M 648.411243 154.621458 C 648.417903 149.679103 649.764243 142.648493 652.500136 133.564835 C 655.275347 124.404313 658.883229 114.12779 663.323783 102.735268 C 667.795436 91.319862 672.486555 79.551231 677.33905 67.448148 C 682.249636 55.326291 686.889113 43.715499 691.249265 32.669753 C 695.644625 21.574134 699.267745 11.741796 702.064641 3.164523 C 704.919629 -5.431525 706.341638 -11.870669 706.357658 -16.148801 C 706.341901 -18.222443 706.141314 -20.351836 705.706024 -22.572188 C 705.305942 -24.842414 704.146569 -26.841584 702.250789 -28.538599 C 705.361903 -30.108663 708.874921 -30.871904 712.82505 -30.878195 C 718.651666 -30.875019 724.526335 -29.373234 730.444948 -26.345847 C 736.394661 -23.341343 741.389072 -19.322355 745.409407 -14.346974 C 749.43385 -9.398584 751.441546 -3.901062 751.459485 2.149701 C 751.451629 7.644205 750.023172 13.944285 747.170005 21.07693 C 744.370821 28.217793 741.199012 35.992351 737.677461 44.431703 C 734.137136 52.812965 731.369571 61.560402 729.293791 70.66169 C 735.310542 70.141475 740.954096 69.895853 746.282545 69.906049 C 750.452712 69.905636 754.606446 70.013187 758.82061 70.268019 C 763.007783 70.518743 767.270053 71.001831 771.580429 71.713174 C 773.793399 65.339194 776.54271 58.163123 779.824252 50.211952 C 783.087019 42.202691 786.343339 34.054365 789.570326 25.735875 C 792.828414 17.394502 795.597123 9.36527 797.822471 1.639961 C 800.07892 -6.10823 801.209901 -12.812605 801.215417 -18.473166 C 801.198622 -23.805723 800.077475 -27.870318 797.816768 -30.617078 C 799.912721 -30.960838 801.973466 -31.254723 804.030103 -31.521618 C 806.08263 -31.761521 808.226689 -31.877026 810.466387 -31.895123 C 816.48605 -31.890179 822.141877 -30.94642 827.433869 -29.063845 C 832.752852 -27.177163 837.137647 -24.051849 840.596471 -19.741887 C 844.032413 -15.463025 845.741437 -9.81765 845.742317 -2.74767 C 845.757397 1.507579 844.637596 7.412776 842.418125 14.918046 C 840.17577 22.392217 837.185827 30.967722 833.421302 40.640452 C 829.65267 50.340174 825.496746 60.588509 821.034507 71.397783 C 816.568158 82.234047 812.10181 93.070312 807.631353 103.933568 C 803.169113 114.742841 799.050739 125.107358 795.226355 134.99191 C 791.460062 144.857688 788.451916 153.734204 786.233017 161.598577 C 784.010008 169.489941 782.905446 175.839323 782.91522 180.673713 C 782.905754 182.5502 783.153303 184.189643 783.657866 185.592041 C 779.877901 185.569001 775.671382 184.901083 771.023642 183.503206 C 766.402894 182.109438 761.930624 180.10309 757.610941 177.457169 C 753.322357 174.788366 749.803048 171.601477 747.053016 167.896504 C 744.325866 164.22263 742.943024 160.062967 742.954364 155.452724 C 742.9669 150.290331 743.733422 145.436023 745.276811 140.920899 C 746.828418 136.351793 748.550189 131.753356 750.438016 127.152579 C 752.33406 122.497819 753.773021 117.580168 754.777783 112.430725 C 752.070446 112.073857 749.481631 111.845496 747.050654 111.668778 C 744.654885 111.442186 742.350648 111.339992 740.137941 111.362198 C 729.809046 111.364116 719.481243 113.354595 709.181521 117.337743 C 703.015141 132.085339 697.900326 145.004607 693.841186 156.068554 C 689.809037 167.136611 687.61822 176.993652 687.276951 185.585697 C 684.211083 185.588503 680.53149 184.724627 676.211182 182.989958 C 671.940748 181.290498 667.625744 178.976689 663.316046 176.083739 C 659.041556 173.140915 655.484699 169.837845 652.622593 166.143429 C 649.81447 162.457229 648.409317 158.62557 648.411243 154.621458 Z M 815.361574 157.471279 C 815.36709 151.810718 816.82904 144.383457 819.720432 135.185386 C 822.661698 126.022523 826.392211 115.847517 830.907861 104.687358 C 835.477494 93.535416 840.297693 82.007365 845.387232 70.161297 C 850.453888 58.284129 855.257652 46.864043 859.775643 35.86994 C 864.347616 24.884054 868.086917 15.014168 870.997656 6.23329 C 873.931277 -2.516487 875.379705 -9.310626 875.388704 -14.086925 C 875.401707 -16.349506 875.182346 -18.536989 874.76583 -20.69925 C 874.345205 -22.83452 873.527929 -25.0854 872.318111 -27.478881 C 873.675316 -27.686541 875.016087 -27.786236 876.259451 -27.790292 C 877.556797 -27.786131 878.827152 -27.786078 880.043525 -27.794242 C 892.414962 -27.789035 902.198675 -26.023628 909.425763 -22.520904 C 916.621752 -18.995298 922.086715 -14.076186 925.770777 -7.798779 C 929.458947 -1.548362 931.944787 5.706553 933.201304 13.961858 C 934.511803 22.22538 935.241965 31.035747 935.391789 40.392958 C 935.599705 49.731395 935.843401 59.379061 936.077111 69.273757 C 936.34603 79.118578 937.318488 88.877174 939.052577 98.530769 C 942.320544 92.483076 945.927124 85.299413 949.868209 77.00677 C 953.817511 68.660145 957.807325 59.684505 961.810662 50.075742 C 965.876198 40.421214 969.767461 30.823008 973.469786 21.196043 C 977.14512 11.564969 980.491254 2.463734 983.450098 -6.088889 C 986.471142 -14.687276 988.840235 -22.086922 990.557378 -28.287825 C 995.395253 -27.413339 999.940279 -25.340682 1004.21945 -22.065747 C 1008.533828 -18.840686 1012.05428 -14.935592 1014.784914 -10.377457 C 1017.538431 -5.788223 1018.942959 -1.04531 1018.9363 3.897045 C 1018.929587 10.109754 1017.400133 18.161922 1014.289847 28.072321 C 1011.187777 37.928738 1007.178511 49.027894 1002.25794 61.396781 C 997.391351 73.773884 992.027739 86.876213 986.162995 100.73076 C 980.337568 114.508441 974.603671 128.410521 968.934314 142.432891 C 963.269066 156.42827 958.19882 169.961887 953.700695 183.002642 C 950.421809 183.497739 947.1799 183.749915 943.947976 183.755062 C 934.642407 183.747048 927.145926 181.832696 921.493741 177.962134 C 915.837447 174.118562 911.403455 168.776433 908.21054 161.993838 C 905.075715 155.192468 902.591072 147.385404 900.791819 138.52277 C 898.988458 129.687128 897.368782 120.189031 895.893477 110.105344 C 894.430496 99.940684 892.574974 89.633423 890.362116 79.133687 C 884.158346 89.954037 878.542505 101.084812 873.568576 112.534229 C 868.625747 123.960763 864.368879 134.690831 860.847848 144.759641 C 857.335033 154.774469 854.61911 163.364068 852.735286 170.478564 C 850.847354 177.620051 849.833803 182.464374 849.655317 185.088397 C 849.105507 185.253256 848.541032 185.333034 847.961891 185.327729 C 847.382751 185.322424 846.80361 185.317119 846.25146 185.315922 C 841.11195 185.334486 836.142656 184.053363 831.424553 181.484879 C 826.710559 178.889405 822.869124 175.460167 819.850376 171.161959 C 816.862728 166.840868 815.375457 162.278678 815.361574 157.471279 Z M 1090.523169 190.738998 C 1090.541688 182.815857 1091.292505 174.617552 1092.860704 166.129417 C 1094.401912 157.637173 1096.36619 148.905545 1098.776421 139.965632 C 1094.49652 140.142659 1089.650376 140.59251 1084.242098 141.288194 C 1078.837928 141.956886 1073.548171 142.781077 1068.376936 143.733775 C 1063.236801 144.663591 1058.881179 145.519506 1055.359945 146.33673 C 1051.851036 147.072979 1049.902936 147.71541 1049.577845 148.218258 C 1053.676196 139.618155 1057.411284 132.315969 1060.783108 126.311702 C 1064.123832 120.330318 1067.740292 115.440335 1071.601388 111.664636 C 1075.439602 107.857838 1080.261201 105.029225 1086.003984 103.224562 C 1091.800749 101.428116 1099.145374 100.530077 1108.09184 100.538663 C 1112.021329 88.875032 1115.234901 78.648955 1117.701454 69.883315 C 1120.22199 61.125892 1121.47789 55.959443 1121.492037 54.415068 C 1121.487356 54.082956 1120.627746 53.924493 1118.890324 53.908578 C 1111.507368 59.412752 1103.488896 66.007703 1094.812026 73.662331 C 1086.135155 81.31696 1077.535097 90.28126 1069.007742 100.582223 C 1060.511488 110.860303 1052.721632 122.84767 1045.669275 136.521443 C 1038.679118 150.149449 1032.937523 165.734969 1028.448601 183.251011 C 1024.16636 183.261982 1019.583732 182.343499 1014.665509 180.545435 C 1009.747286 178.74737 1005.137148 176.195321 1000.826878 172.943268 C 996.547707 169.668333 993.064803 165.879421 990.374058 161.603524 C 987.737295 157.335843 986.416081 152.771313 986.429189 147.968022 C 986.421288 140.399875 988.781021 132.336007 993.539487 123.753534 C 998.27507 115.139962 1004.550348 106.208424 1012.33833 96.954813 C 1020.13042 87.674211 1028.684141 78.288609 1037.949619 68.762799 C 1047.246196 59.214106 1056.530448 49.746386 1065.798266 40.386632 C 1075.066083 31.026877 1083.601602 21.942287 1091.40893 13.105869 C 1099.247358 4.246569 1105.536105 -4.047736 1110.217081 -11.758274 C 1114.960257 -19.514576 1117.329922 -26.555119 1117.326077 -32.879902 C 1117.338508 -35.501586 1116.9883 -37.736603 1116.31066 -39.634829 C 1121.805165 -39.626973 1128.256062 -38.645041 1135.632253 -36.66615 C 1143.008444 -34.687259 1150.213847 -31.767785 1157.267234 -27.849635 C 1164.301848 -23.989577 1170.144115 -19.37205 1174.758828 -13.947179 C 1179.404641 -8.545191 1181.741483 -2.307153 1181.746472 4.735836 C 1181.737472 9.512135 1180.515531 16.451215 1178.080649 25.553074 C 1175.703858 34.63616 1172.706788 45.254207 1169.093549 57.380226 C 1165.480309 69.506244 1161.882879 82.43555 1158.270158 96.191025 C 1154.665655 109.892519 1151.680181 123.881555 1149.286745 138.154024 C 1146.897417 152.399503 1145.686342 166.161533 1145.684619 179.417231 C 1145.704529 194.526534 1147.821017 208.380824 1152.115056 220.992429 C 1156.436086 233.608141 1164.097111 243.694431 1175.071138 251.24719 C 1173.188774 251.457762 1171.295854 251.556261 1169.415258 251.573786 C 1167.538771 251.56432 1165.604194 251.573628 1163.700716 251.560053 C 1144.977504 251.554583 1130.301934 248.906472 1119.651124 243.584622 C 1109.000314 238.262772 1101.464155 230.984764 1097.069638 221.754705 C 1092.698004 212.555747 1090.541469 202.230283 1090.523169 190.738998 Z M 1090.523169 190.738998 " stroke="#028a57" stroke-width="42.192642" stroke-opacity="1" stroke-miterlimit="4"/><g fill="#ffffff" fill-opacity="1"><g transform="translate(114.95234, 268.291436)"><g><path d="M 18.96875 -16.015625 L 18.984375 -15.875 C 19.191406 -14.507812 19.101562 -13.144531 18.71875 -11.78125 C 18.332031 -10.414062 17.726562 -9.109375 16.90625 -7.859375 C 16.09375 -6.617188 15.140625 -5.488281 14.046875 -4.46875 C 12.960938 -3.457031 11.8125 -2.625 10.59375 -1.96875 C 9.375 -1.320312 8.164062 -0.90625 6.96875 -0.71875 C 5.851562 -0.550781 4.796875 -0.640625 3.796875 -0.984375 C 2.796875 -1.328125 1.941406 -1.992188 1.234375 -2.984375 C 0.523438 -3.972656 0.0390625 -5.328125 -0.21875 -7.046875 C -0.445312 -8.523438 -0.425781 -10.164062 -0.15625 -11.96875 C 0.101562 -13.769531 0.5625 -15.617188 1.21875 -17.515625 C 1.882812 -19.421875 2.734375 -21.265625 3.765625 -23.046875 C 4.804688 -24.828125 5.984375 -26.460938 7.296875 -27.953125 C 8.617188 -29.441406 10.054688 -30.679688 11.609375 -31.671875 C 13.160156 -32.660156 14.785156 -33.285156 16.484375 -33.546875 C 17.828125 -33.742188 18.90625 -33.707031 19.71875 -33.4375 C 20.539062 -33.175781 21.171875 -32.753906 21.609375 -32.171875 C 22.046875 -31.597656 22.320312 -30.9375 22.4375 -30.1875 C 22.582031 -29.257812 22.535156 -28.28125 22.296875 -27.25 C 22.066406 -26.21875 21.738281 -25.285156 21.3125 -24.453125 C 20.882812 -23.617188 20.4375 -23.003906 19.96875 -22.609375 C 19.289062 -24.046875 18.566406 -25.039062 17.796875 -25.59375 C 17.035156 -26.15625 16.28125 -26.378906 15.53125 -26.265625 C 14.78125 -26.148438 14.050781 -25.769531 13.34375 -25.125 C 12.632812 -24.488281 11.960938 -23.679688 11.328125 -22.703125 C 10.691406 -21.722656 10.113281 -20.65625 9.59375 -19.5 C 9.070312 -18.351562 8.628906 -17.207031 8.265625 -16.0625 C 7.910156 -14.914062 7.65625 -13.851562 7.5 -12.875 C 7.351562 -11.894531 7.328125 -11.085938 7.421875 -10.453125 C 7.515625 -9.847656 7.804688 -9.425781 8.296875 -9.1875 C 8.796875 -8.957031 9.425781 -8.898438 10.1875 -9.015625 C 11.039062 -9.140625 11.976562 -9.484375 13 -10.046875 C 14.03125 -10.617188 15.070312 -11.40625 16.125 -12.40625 C 17.1875 -13.414062 18.132812 -14.617188 18.96875 -16.015625 Z M 18.96875 -16.015625 "/></g></g></g><g fill="#ffffff" fill-opacity="1"><g transform="translate(134.814792, 265.268046)"><g><path d="M 14.671875 -1.109375 C 14.492188 -2.234375 14.421875 -3.410156 14.453125 -4.640625 C 14.492188 -5.878906 14.585938 -7.160156 14.734375 -8.484375 C 14.128906 -8.367188 13.453125 -8.203125 12.703125 -7.984375 C 11.960938 -7.765625 11.234375 -7.53125 10.515625 -7.28125 C 9.804688 -7.039062 9.210938 -6.828125 8.734375 -6.640625 C 8.265625 -6.460938 8.007812 -6.328125 7.96875 -6.234375 C 8.351562 -7.535156 8.71875 -8.648438 9.0625 -9.578125 C 9.40625 -10.503906 9.8125 -11.273438 10.28125 -11.890625 C 10.757812 -12.503906 11.382812 -13 12.15625 -13.375 C 12.925781 -13.757812 13.9375 -14.046875 15.1875 -14.234375 C 15.507812 -15.984375 15.75 -17.503906 15.90625 -18.796875 C 16.070312 -20.085938 16.140625 -20.84375 16.109375 -21.0625 C 16.097656 -21.113281 15.96875 -21.117188 15.71875 -21.078125 C 14.800781 -20.128906 13.8125 -19.019531 12.75 -17.75 C 11.6875 -16.488281 10.664062 -15.035156 9.6875 -13.390625 C 8.707031 -11.753906 7.863281 -9.894531 7.15625 -7.8125 C 6.457031 -5.726562 5.976562 -3.40625 5.71875 -0.84375 C 5.101562 -0.75 4.429688 -0.773438 3.703125 -0.921875 C 2.984375 -1.066406 2.28125 -1.320312 1.59375 -1.6875 C 0.914062 -2.0625 0.347656 -2.523438 -0.109375 -3.078125 C -0.578125 -3.628906 -0.863281 -4.242188 -0.96875 -4.921875 C -1.132812 -5.992188 -0.972656 -7.1875 -0.484375 -8.5 C 0.00390625 -9.8125 0.695312 -11.207031 1.59375 -12.6875 C 2.488281 -14.175781 3.488281 -15.691406 4.59375 -17.234375 C 5.707031 -18.785156 6.816406 -20.320312 7.921875 -21.84375 C 9.035156 -23.363281 10.050781 -24.832031 10.96875 -26.25 C 11.882812 -27.675781 12.59375 -28.984375 13.09375 -30.171875 C 13.601562 -31.367188 13.785156 -32.414062 13.640625 -33.3125 C 13.585938 -33.675781 13.492188 -33.988281 13.359375 -34.25 C 14.128906 -34.363281 15.054688 -34.359375 16.140625 -34.234375 C 17.222656 -34.117188 18.304688 -33.863281 19.390625 -33.46875 C 20.472656 -33.082031 21.398438 -32.550781 22.171875 -31.875 C 22.953125 -31.207031 23.414062 -30.375 23.5625 -29.375 C 23.664062 -28.695312 23.644531 -27.6875 23.5 -26.34375 C 23.363281 -25.007812 23.171875 -23.445312 22.921875 -21.65625 C 22.671875 -19.875 22.4375 -17.96875 22.21875 -15.9375 C 22.007812 -13.914062 21.890625 -11.875 21.859375 -9.8125 C 21.828125 -7.75 21.953125 -5.78125 22.234375 -3.90625 C 22.554688 -1.757812 23.15625 0.15625 24.03125 1.84375 C 24.90625 3.53125 26.203125 4.789062 27.921875 5.625 C 27.660156 5.6875 27.394531 5.738281 27.125 5.78125 C 26.851562 5.820312 26.585938 5.863281 26.328125 5.90625 C 23.679688 6.3125 21.546875 6.253906 19.921875 5.734375 C 18.296875 5.210938 17.070312 4.347656 16.25 3.140625 C 15.4375 1.929688 14.910156 0.515625 14.671875 -1.109375 Z M 14.671875 -1.109375 "/></g></g></g><g fill="#ffffff" fill-opacity="1"><g transform="translate(159.269295, 261.545671)"><g><path d="M -0.25 -3.65625 C -0.375 -4.445312 -0.328125 -5.523438 -0.109375 -6.890625 C 0.0976562 -8.265625 0.398438 -9.785156 0.796875 -11.453125 C 1.203125 -13.128906 1.632812 -14.859375 2.09375 -16.640625 C 2.5625 -18.429688 3 -20.148438 3.40625 -21.796875 C 3.8125 -23.453125 4.128906 -24.929688 4.359375 -26.234375 C 4.585938 -27.546875 4.648438 -28.539062 4.546875 -29.21875 C 4.503906 -29.53125 4.425781 -29.832031 4.3125 -30.125 C 4.207031 -30.414062 4.039062 -30.71875 3.8125 -31.03125 C 4.007812 -31.09375 4.195312 -31.132812 4.375 -31.15625 C 4.550781 -31.1875 4.726562 -31.21875 4.90625 -31.25 C 6.65625 -31.519531 8.078125 -31.476562 9.171875 -31.125 C 10.265625 -30.78125 11.140625 -30.207031 11.796875 -29.40625 C 12.453125 -28.601562 12.957031 -27.628906 13.3125 -26.484375 C 13.675781 -25.347656 13.972656 -24.117188 14.203125 -22.796875 C 14.429688 -21.484375 14.671875 -20.128906 14.921875 -18.734375 C 15.171875 -17.347656 15.519531 -15.988281 15.96875 -14.65625 C 16.289062 -15.570312 16.644531 -16.660156 17.03125 -17.921875 C 17.414062 -19.191406 17.785156 -20.550781 18.140625 -22 C 18.503906 -23.445312 18.84375 -24.890625 19.15625 -26.328125 C 19.476562 -27.773438 19.757812 -29.132812 20 -30.40625 C 20.238281 -31.6875 20.414062 -32.78125 20.53125 -33.6875 C 21.226562 -33.675781 21.910156 -33.484375 22.578125 -33.109375 C 23.253906 -32.742188 23.835938 -32.269531 24.328125 -31.6875 C 24.816406 -31.101562 25.113281 -30.457031 25.21875 -29.75 C 25.351562 -28.875 25.3125 -27.703125 25.09375 -26.234375 C 24.875 -24.773438 24.546875 -23.117188 24.109375 -21.265625 C 23.679688 -19.410156 23.203125 -17.441406 22.671875 -15.359375 C 22.148438 -13.285156 21.640625 -11.195312 21.140625 -9.09375 C 20.640625 -6.988281 20.210938 -4.96875 19.859375 -3.03125 C 19.410156 -2.882812 18.953125 -2.773438 18.484375 -2.703125 C 17.179688 -2.503906 16.085938 -2.613281 15.203125 -3.03125 C 14.316406 -3.457031 13.578125 -4.113281 12.984375 -5 C 12.390625 -5.894531 11.867188 -6.945312 11.421875 -8.15625 C 10.972656 -9.375 10.535156 -10.6875 10.109375 -12.09375 C 9.691406 -13.5 9.207031 -14.914062 8.65625 -16.34375 C 8.007812 -14.675781 7.457031 -12.976562 7 -11.25 C 6.550781 -9.53125 6.1875 -7.921875 5.90625 -6.421875 C 5.625 -4.929688 5.421875 -3.660156 5.296875 -2.609375 C 5.179688 -1.566406 5.144531 -0.859375 5.1875 -0.484375 C 5.113281 -0.453125 5.03125 -0.425781 4.9375 -0.40625 C 4.851562 -0.394531 4.78125 -0.382812 4.71875 -0.375 C 3.976562 -0.269531 3.242188 -0.347656 2.515625 -0.609375 C 1.796875 -0.867188 1.179688 -1.269531 0.671875 -1.8125 C 0.160156 -2.351562 -0.144531 -2.96875 -0.25 -3.65625 Z M -0.25 -3.65625 "/></g></g></g><g fill="#ffffff" fill-opacity="1"><g transform="translate(183.978912, 257.784463)"><g><path d="M -0.6875 -3.984375 C -0.789062 -4.691406 -0.742188 -5.71875 -0.546875 -7.0625 C -0.359375 -8.414062 -0.0703125 -9.945312 0.3125 -11.65625 C 0.695312 -13.375 1.101562 -15.140625 1.53125 -16.953125 C 1.96875 -18.765625 2.375 -20.503906 2.75 -22.171875 C 3.132812 -23.835938 3.429688 -25.304688 3.640625 -26.578125 C 3.859375 -27.859375 3.925781 -28.800781 3.84375 -29.40625 C 3.789062 -29.695312 3.707031 -29.992188 3.59375 -30.296875 C 3.488281 -30.597656 3.285156 -30.851562 2.984375 -31.0625 C 3.390625 -31.351562 3.867188 -31.539062 4.421875 -31.625 C 5.242188 -31.75 6.109375 -31.660156 7.015625 -31.359375 C 7.929688 -31.066406 8.722656 -30.609375 9.390625 -29.984375 C 10.066406 -29.367188 10.472656 -28.632812 10.609375 -27.78125 C 10.722656 -27.007812 10.65625 -26.085938 10.40625 -25.015625 C 10.164062 -23.953125 9.882812 -22.785156 9.5625 -21.515625 C 9.238281 -20.253906 9.035156 -18.957031 8.953125 -17.625 C 9.796875 -17.820312 10.59375 -17.976562 11.34375 -18.09375 C 11.914062 -18.1875 12.503906 -18.257812 13.109375 -18.3125 C 13.710938 -18.363281 14.328125 -18.382812 14.953125 -18.375 C 15.140625 -19.320312 15.375 -20.394531 15.65625 -21.59375 C 15.9375 -22.800781 16.21875 -24.03125 16.5 -25.28125 C 16.789062 -26.53125 17.007812 -27.722656 17.15625 -28.859375 C 17.300781 -30.003906 17.3125 -30.976562 17.1875 -31.78125 C 17.070312 -32.53125 16.828125 -33.078125 16.453125 -33.421875 C 16.742188 -33.503906 17.03125 -33.585938 17.3125 -33.671875 C 17.59375 -33.753906 17.894531 -33.820312 18.21875 -33.875 C 19.070312 -34 19.894531 -33.984375 20.6875 -33.828125 C 21.488281 -33.679688 22.171875 -33.34375 22.734375 -32.8125 C 23.304688 -32.28125 23.671875 -31.515625 23.828125 -30.515625 C 23.921875 -29.898438 23.890625 -29.039062 23.734375 -27.9375 C 23.585938 -26.84375 23.347656 -25.566406 23.015625 -24.109375 C 22.691406 -22.648438 22.332031 -21.109375 21.9375 -19.484375 C 21.539062 -17.859375 21.140625 -16.226562 20.734375 -14.59375 C 20.335938 -12.96875 19.976562 -11.414062 19.65625 -9.9375 C 19.332031 -8.46875 19.097656 -7.148438 18.953125 -5.984375 C 18.816406 -4.816406 18.800781 -3.894531 18.90625 -3.21875 C 18.945312 -2.945312 19.019531 -2.71875 19.125 -2.53125 C 18.59375 -2.445312 17.976562 -2.453125 17.28125 -2.546875 C 16.59375 -2.648438 15.914062 -2.84375 15.25 -3.125 C 14.59375 -3.40625 14.03125 -3.78125 13.5625 -4.25 C 13.09375 -4.71875 12.804688 -5.273438 12.703125 -5.921875 C 12.585938 -6.648438 12.59375 -7.351562 12.71875 -8.03125 C 12.84375 -8.707031 12.984375 -9.394531 13.140625 -10.09375 C 13.304688 -10.789062 13.414062 -11.515625 13.46875 -12.265625 C 13.0625 -12.253906 12.6875 -12.234375 12.34375 -12.203125 C 12 -12.179688 11.664062 -12.148438 11.34375 -12.109375 C 9.894531 -11.878906 8.484375 -11.375 7.109375 -10.59375 C 6.554688 -8.363281 6.113281 -6.421875 5.78125 -4.765625 C 5.445312 -3.117188 5.347656 -1.679688 5.484375 -0.453125 C 5.046875 -0.378906 4.503906 -0.421875 3.859375 -0.578125 C 3.210938 -0.742188 2.550781 -0.984375 1.875 -1.296875 C 1.207031 -1.617188 0.632812 -2.007812 0.15625 -2.46875 C -0.320312 -2.925781 -0.601562 -3.429688 -0.6875 -3.984375 Z M -0.6875 -3.984375 "/></g></g></g><g fill="#ffffff" fill-opacity="1"><g transform="translate(207.230732, 254.245156)"><g><path d="M -0.25 -3.65625 C -0.375 -4.445312 -0.328125 -5.523438 -0.109375 -6.890625 C 0.0976562 -8.265625 0.398438 -9.785156 0.796875 -11.453125 C 1.203125 -13.128906 1.632812 -14.859375 2.09375 -16.640625 C 2.5625 -18.429688 3 -20.148438 3.40625 -21.796875 C 3.8125 -23.453125 4.128906 -24.929688 4.359375 -26.234375 C 4.585938 -27.546875 4.648438 -28.539062 4.546875 -29.21875 C 4.503906 -29.53125 4.425781 -29.832031 4.3125 -30.125 C 4.207031 -30.414062 4.039062 -30.71875 3.8125 -31.03125 C 4.007812 -31.09375 4.195312 -31.132812 4.375 -31.15625 C 4.550781 -31.1875 4.726562 -31.21875 4.90625 -31.25 C 6.65625 -31.519531 8.078125 -31.476562 9.171875 -31.125 C 10.265625 -30.78125 11.140625 -30.207031 11.796875 -29.40625 C 12.453125 -28.601562 12.957031 -27.628906 13.3125 -26.484375 C 13.675781 -25.347656 13.972656 -24.117188 14.203125 -22.796875 C 14.429688 -21.484375 14.671875 -20.128906 14.921875 -18.734375 C 15.171875 -17.347656 15.519531 -15.988281 15.96875 -14.65625 C 16.289062 -15.570312 16.644531 -16.660156 17.03125 -17.921875 C 17.414062 -19.191406 17.785156 -20.550781 18.140625 -22 C 18.503906 -23.445312 18.84375 -24.890625 19.15625 -26.328125 C 19.476562 -27.773438 19.757812 -29.132812 20 -30.40625 C 20.238281 -31.6875 20.414062 -32.78125 20.53125 -33.6875 C 21.226562 -33.675781 21.910156 -33.484375 22.578125 -33.109375 C 23.253906 -32.742188 23.835938 -32.269531 24.328125 -31.6875 C 24.816406 -31.101562 25.113281 -30.457031 25.21875 -29.75 C 25.351562 -28.875 25.3125 -27.703125 25.09375 -26.234375 C 24.875 -24.773438 24.546875 -23.117188 24.109375 -21.265625 C 23.679688 -19.410156 23.203125 -17.441406 22.671875 -15.359375 C 22.148438 -13.285156 21.640625 -11.195312 21.140625 -9.09375 C 20.640625 -6.988281 20.210938 -4.96875 19.859375 -3.03125 C 19.410156 -2.882812 18.953125 -2.773438 18.484375 -2.703125 C 17.179688 -2.503906 16.085938 -2.613281 15.203125 -3.03125 C 14.316406 -3.457031 13.578125 -4.113281 12.984375 -5 C 12.390625 -5.894531 11.867188 -6.945312 11.421875 -8.15625 C 10.972656 -9.375 10.535156 -10.6875 10.109375 -12.09375 C 9.691406 -13.5 9.207031 -14.914062 8.65625 -16.34375 C 8.007812 -14.675781 7.457031 -12.976562 7 -11.25 C 6.550781 -9.53125 6.1875 -7.921875 5.90625 -6.421875 C 5.625 -4.929688 5.421875 -3.660156 5.296875 -2.609375 C 5.179688 -1.566406 5.144531 -0.859375 5.1875 -0.484375 C 5.113281 -0.453125 5.03125 -0.425781 4.9375 -0.40625 C 4.851562 -0.394531 4.78125 -0.382812 4.71875 -0.375 C 3.976562 -0.269531 3.242188 -0.347656 2.515625 -0.609375 C 1.796875 -0.867188 1.179688 -1.269531 0.671875 -1.8125 C 0.160156 -2.351562 -0.144531 -2.96875 -0.25 -3.65625 Z M -0.25 -3.65625 "/></g></g></g><g fill="#ffffff" fill-opacity="1"><g transform="translate(231.940349, 250.483948)"><g><path d="M 14.671875 -1.109375 C 14.492188 -2.234375 14.421875 -3.410156 14.453125 -4.640625 C 14.492188 -5.878906 14.585938 -7.160156 14.734375 -8.484375 C 14.128906 -8.367188 13.453125 -8.203125 12.703125 -7.984375 C 11.960938 -7.765625 11.234375 -7.53125 10.515625 -7.28125 C 9.804688 -7.039062 9.210938 -6.828125 8.734375 -6.640625 C 8.265625 -6.460938 8.007812 -6.328125 7.96875 -6.234375 C 8.351562 -7.535156 8.71875 -8.648438 9.0625 -9.578125 C 9.40625 -10.503906 9.8125 -11.273438 10.28125 -11.890625 C 10.757812 -12.503906 11.382812 -13 12.15625 -13.375 C 12.925781 -13.757812 13.9375 -14.046875 15.1875 -14.234375 C 15.507812 -15.984375 15.75 -17.503906 15.90625 -18.796875 C 16.070312 -20.085938 16.140625 -20.84375 16.109375 -21.0625 C 16.097656 -21.113281 15.96875 -21.117188 15.71875 -21.078125 C 14.800781 -20.128906 13.8125 -19.019531 12.75 -17.75 C 11.6875 -16.488281 10.664062 -15.035156 9.6875 -13.390625 C 8.707031 -11.753906 7.863281 -9.894531 7.15625 -7.8125 C 6.457031 -5.726562 5.976562 -3.40625 5.71875 -0.84375 C 5.101562 -0.75 4.429688 -0.773438 3.703125 -0.921875 C 2.984375 -1.066406 2.28125 -1.320312 1.59375 -1.6875 C 0.914062 -2.0625 0.347656 -2.523438 -0.109375 -3.078125 C -0.578125 -3.628906 -0.863281 -4.242188 -0.96875 -4.921875 C -1.132812 -5.992188 -0.972656 -7.1875 -0.484375 -8.5 C 0.00390625 -9.8125 0.695312 -11.207031 1.59375 -12.6875 C 2.488281 -14.175781 3.488281 -15.691406 4.59375 -17.234375 C 5.707031 -18.785156 6.816406 -20.320312 7.921875 -21.84375 C 9.035156 -23.363281 10.050781 -24.832031 10.96875 -26.25 C 11.882812 -27.675781 12.59375 -28.984375 13.09375 -30.171875 C 13.601562 -31.367188 13.785156 -32.414062 13.640625 -33.3125 C 13.585938 -33.675781 13.492188 -33.988281 13.359375 -34.25 C 14.128906 -34.363281 15.054688 -34.359375 16.140625 -34.234375 C 17.222656 -34.117188 18.304688 -33.863281 19.390625 -33.46875 C 20.472656 -33.082031 21.398438 -32.550781 22.171875 -31.875 C 22.953125 -31.207031 23.414062 -30.375 23.5625 -29.375 C 23.664062 -28.695312 23.644531 -27.6875 23.5 -26.34375 C 23.363281 -25.007812 23.171875 -23.445312 22.921875 -21.65625 C 22.671875 -19.875 22.4375 -17.96875 22.21875 -15.9375 C 22.007812 -13.914062 21.890625 -11.875 21.859375 -9.8125 C 21.828125 -7.75 21.953125 -5.78125 22.234375 -3.90625 C 22.554688 -1.757812 23.15625 0.15625 24.03125 1.84375 C 24.90625 3.53125 26.203125 4.789062 27.921875 5.625 C 27.660156 5.6875 27.394531 5.738281 27.125 5.78125 C 26.851562 5.820312 26.585938 5.863281 26.328125 5.90625 C 23.679688 6.3125 21.546875 6.253906 19.921875 5.734375 C 18.296875 5.210938 17.070312 4.347656 16.25 3.140625 C 15.4375 1.929688 14.910156 0.515625 14.671875 -1.109375 Z M 14.671875 -1.109375 "/></g></g></g><g fill="#ffffff" fill-opacity="1"><g transform="translate(256.395934, 246.761408)"><g/></g></g></svg>