<?xml version="1.0" ?>
<!-- Uploaded to: SVG Repo, www.svgrepo.com, Generator: SVG Repo Mixer Tools -->
<svg fill="#000000" width="800px" height="800px" viewBox="0 0 100 100" version="1.1" xml:space="preserve" xmlns="http://www.w3.org/2000/svg" xmlns:xlink="http://www.w3.org/1999/xlink">
<g id="backpack"/>
<g id="camping"/>
<g id="transportation"/>
<g id="navigation"/>
<g id="hotel"/>
<g id="money"/>
<g id="signpost">
<path d="M95.6,52.2l-23-16c-0.3-0.2-0.7-0.2-1-0.1C71.2,36.3,71,36.6,71,37v5H60.7l0.7-8H72c0.6,0,1-0.4,1-1V13c0-0.6-0.4-1-1-1   h-8.6L64,5.1c0-0.3-0.1-0.6-0.3-0.8S63.3,4,63,4H37c-0.3,0-0.5,0.1-0.7,0.3S36,4.8,36,5.1l0.6,6.9H29V7c0-0.4-0.2-0.7-0.5-0.9   c-0.3-0.2-0.7-0.1-1,0.1l-23,16C4.2,22.4,4,22.7,4,23s0.2,0.6,0.4,0.8l23,16c0.2,0.1,0.4,0.2,0.6,0.2c0.2,0,0.3,0,0.5-0.1   c0.3-0.2,0.5-0.5,0.5-0.9v-5h9.6l0.7,8H28c-0.6,0-1,0.4-1,1v20c0,0.6,0.4,1,1,1h13.2l1.8,20.6C38,76.1,28.1,76,28,76   c-0.4,0-0.8,0.3-0.9,0.6s0,0.8,0.3,1.1c6.9,6.1,8.3,13.6,8.6,16.3H34c-0.6,0-1,0.4-1,1s0.4,1,1,1h11h10h11c0.6,0,1-0.4,1-1   s-0.4-1-1-1h-1.9c0.3-2.7,1.7-10.1,8.6-16.3c0.3-0.3,0.4-0.7,0.3-1.1S72.4,76,72,76c-0.1,0-10,0.1-15.1,8.6L58.8,64H71v5   c0,0.4,0.2,0.7,0.5,0.9C71.7,70,71.8,70,72,70c0.2,0,0.4-0.1,0.6-0.2l23-16c0.3-0.2,0.4-0.5,0.4-0.8S95.8,52.4,95.6,52.2z M38.1,6   h23.8l-0.5,6H38.6L38.1,6z M28,32c-0.6,0-1,0.4-1,1v4.1L6.8,23L27,8.9V13c0,0.6,0.4,1,1,1h43v18H28z M40.6,34h18.8l-0.7,8H41.3   L40.6,34z M50,73.9c3.3,6.1,3.9,16.8,4,20.1h-8C46.1,90.7,46.7,80,50,73.9z M30.8,78.3c4.3,0.9,12,4.1,13.1,15.7h-6   C37.7,91.5,36.6,84.6,30.8,78.3z M69.2,78.3c-5.8,6.3-6.9,13.1-7.2,15.7h-6C57.2,82.4,64.9,79.2,69.2,78.3z M55,83.5   c-0.7-4.3-2-9-4.2-12.1c0,0,0,0,0,0c0,0,0,0,0-0.1c0,0-0.1-0.1-0.1-0.1c0,0-0.1-0.1-0.1-0.1c0,0,0,0,0,0c-0.1,0-0.1-0.1-0.2-0.1   c-0.1,0-0.1-0.1-0.2-0.1c-0.1,0-0.1,0-0.2,0c-0.1,0-0.1,0-0.2,0c-0.1,0-0.1,0-0.2,0.1c-0.1,0-0.1,0-0.2,0.1c0,0,0,0,0,0   c0,0-0.1,0.1-0.1,0.1c0,0-0.1,0.1-0.1,0.1c0,0,0,0,0,0.1c0,0,0,0,0,0c-2.2,3.1-3.4,7.7-4.2,12.1L43.3,64h13.5L55,83.5z M73,67.1V63   c0-0.6-0.4-1-1-1H29V44h43c0.6,0,1-0.4,1-1v-4.1L93.2,53L73,67.1z"/>
</g>
<g id="ticket"/>
<g id="schedule"/>
<g id="beach"/>
<g id="mountain"/>
<g id="location"/>
<g id="traveling"/>
<g id="bonfire"/>
<g id="camera"/>
<g id="medicine"/>
<g id="drink"/>
<g id="canned_food"/>
<g id="nature"/>
<g id="map"/>
</svg>